<svg width="70" height="42" viewBox="0 0 70 42" fill="none" xmlns="http://www.w3.org/2000/svg">
<path d="M64.9402 19H41.0598C34.3134 19 34.3134 8.9528 41.0598 8.9528H42.8803C41.0598 4.75726 46.7354 0.00967695 49.948 2.99072C56.2661 -3.96503 64.9402 2.54908 63.1197 8.9528H64.9402C71.6866 8.9528 71.6866 19 64.9402 19Z" fill="white"/>
<path d="M55.3268 42H9.67323C-3.22441 42 -3.22441 22.9632 9.67323 22.9632H13.1535C9.67323 15.0138 20.5236 6.01834 26.6654 11.6666C38.7441 -1.5127 55.3268 10.8298 51.8465 22.9632H55.3268C68.2244 22.9632 68.2244 42 55.3268 42Z" fill="white"/>
</svg>
