<svg width="116" height="109" viewBox="0 0 116 109" fill="none" xmlns="http://www.w3.org/2000/svg">
<rect x="12.5" y="24.5" width="91" height="67" rx="7.5" stroke-width="5"/>
<rect x="24.5" y="33.5" width="67" height="49" rx="2.5" stroke-width="5"/>
<path d="M0 91.6087C0 90.168 1.16795 89 2.6087 89H113.391C114.832 89 116 90.168 116 91.6087V91.6087C116 101.214 108.214 109 98.6087 109H17.3913C7.78635 109 0 101.214 0 91.6087V91.6087Z" stroke-width="10" mask="url(#path-3-inside-1_320_82)"/>
<circle cx="21.5" cy="7.5" r="6" stroke-width="3"/>
<circle cx="45.5" cy="7.5" r="6" stroke-width="3"/>
<circle cx="69.5" cy="7.5" r="6" stroke-width="3"/>
<circle cx="93.5" cy="7.5" r="6" stroke-width="3"/>
<path d="M49.5 12.5L58 21M58 21L66.5 12.5M58 21V63M58 63L52 57M58 63L64 57" stroke-width="3"/>
<path d="M25 12L30.5355 17.5355C31.4732 18.4732 32 19.745 32 21.0711V45.9289C32 47.255 32.5268 48.5268 33.4645 49.4645L36.5355 52.5355C37.4732 53.4732 38 54.7434 38 56.0695C38 57.8385 38 60.489 38 63M38 63C35.6569 60.6569 34.3431 59.3431 32 57M38 63C40.3431 60.6569 41.6569 59.3431 44 57" stroke-width="3"/>
<path d="M91 12L85.4645 17.5355C84.5268 18.4732 84 19.745 84 21.0711V45.9289C84 47.255 83.4732 48.5268 82.5355 49.4645L79.4645 52.5355C78.5268 53.4732 78 54.7434 78 56.0695C78 57.8385 78 60.489 78 63M78 63C80.3431 60.6569 81.6569 59.3431 84 57M78 63C75.6569 60.6569 74.3431 59.3431 72 57" stroke-width="3"/>
</svg>
