<svg id="Capa_1" enable-background="new 0 0 512 512" height="512" viewBox="0 0 512 512" width="512" xmlns="http://www.w3.org/2000/svg"><g><path d="m389.226 68.018-126.03-57.286c-15.666-7.122-32.335-10.732-49.543-10.732h-63.868c-3.158 0-5.977 1.978-7.052 4.947s-.175 6.293 2.251 8.315l4.32 3.6-17.64 21.564c-41.325 50.514-52.76 119.856-29.844 180.965l9.746 25.989c15.404 41.087 14.317 85.895-3.06 126.168-4.984 11.551-.121 24.94 11.071 30.48l8.546 4.231c-.957 5.094-.05 10.402 2.716 15.032 3.945 6.604 10.893 10.548 18.586 10.548h8.892v17.064h-17.85c-16.679 0-30.248 13.569-30.248 30.247v17.767c0 8.317 6.766 15.083 15.083 15.083h257.384c8.316 0 15.083-6.766 15.083-15.083v-17.767c0-16.678-13.569-30.247-30.248-30.247h-17.85v-17.064h.516c21.816 0 39.565-17.749 39.565-39.564v-39.609c0-43.43-15.45-85.605-43.502-118.76l-46.45-54.896c-2.675-3.162-7.407-3.557-10.57-.881-3.162 2.675-3.556 7.408-.881 10.57l46.45 54.895c25.765 30.449 39.954 69.185 39.954 109.071v39.609c0 13.545-11.02 24.564-24.565 24.564h-200.763c-3.406 0-5.126-2.266-5.708-3.24s-1.761-3.563-.146-6.562c29.55-54.878 33.946-119.822 12.061-178.182l-9.746-25.988c-17.051-45.471-8.541-97.066 22.211-134.651l17.365-21.224 7.619 6.349c3.183 2.652 7.912 2.222 10.563-.96 2.652-3.182 2.222-7.911-.96-10.563l-32.184-26.817h43.153c15.052 0 29.633 3.158 43.336 9.387l126.03 57.287c14.457 6.571 23.798 21.078 23.798 36.958v33.159c0 4.705-3.828 8.532-8.532 8.532h-14.34c-4.866 0-9.578-1.426-13.626-4.125l-7.893-5.261c-6.521-4.348-14.109-6.646-21.946-6.646h-70.453c-17.965 0-32.581-14.615-32.581-32.58 0-4.143-3.358-7.5-7.5-7.5s-7.5 3.357-7.5 7.5c0 26.236 21.345 47.58 47.581 47.58h70.453c4.866 0 9.578 1.427 13.626 4.126l7.893 5.262c6.521 4.347 14.109 6.645 21.946 6.645h14.34c12.976 0 23.532-10.557 23.532-23.532v-33.159c0-21.749-12.793-41.616-32.591-50.615zm-54.555 380.885h-112.741c-4.142 0-7.5 3.358-7.5 7.5s3.358 7.5 7.5 7.5h145.591c8.408 0 15.248 6.84 15.248 15.247v17.767c0 .045-.037.083-.083.083h-257.384c-.045 0-.083-.037-.083-.083v-17.767c0-8.407 6.84-15.247 15.248-15.247h49.398c4.142 0 7.5-3.358 7.5-7.5s-3.358-7.5-7.5-7.5h-16.549v-17.064h161.354v17.064zm-160.734-411.513-17.45 21.328c-34.124 41.707-43.567 98.96-24.646 149.417l9.746 25.987c19.387 51.698 16.593 108.944-7.442 158.38l-7.912-3.917c-4.038-2-5.774-6.873-3.953-11.095 18.921-43.853 20.105-92.64 3.333-137.377l-9.746-25.99c-21.048-56.123-10.546-119.807 27.406-166.2l17.554-21.458z"/><path d="m285.542 79.646v-8.017c0-4.142-3.358-7.5-7.5-7.5s-7.5 3.358-7.5 7.5v8.017c0 4.142 3.358 7.5 7.5 7.5s7.5-3.359 7.5-7.5z"/></g></svg>
