<?xml version="1.0" encoding="iso-8859-1"?>
<!-- Generator: Adobe Illustrator 19.0.0, SVG Export Plug-In . SVG Version: 6.00 Build 0)  -->
<svg version="1.1" id="Capa_1" xmlns="http://www.w3.org/2000/svg" xmlns:xlink="http://www.w3.org/1999/xlink" x="0px" y="0px"
	 viewBox="0 0 480 480" style="enable-background:new 0 0 480 480;" xml:space="preserve">
<g>
	<g>
		<path d="M240,0C107.452,0,0,107.452,0,240s107.452,240,240,240s240-107.452,240-240C479.85,107.514,372.486,0.15,240,0z M240,464
			C116.288,464,16,363.712,16,240S116.288,16,240,16s224,100.288,224,224C463.859,363.653,363.653,463.859,240,464z"/>
	</g>
</g>
<g>
	<g>
		<path d="M240,40C129.543,40,40,129.543,40,240s89.543,200,200,200s200-89.543,200-200C439.877,129.594,350.406,40.123,240,40z
			 M240,424c-101.62,0-184-82.38-184-184S138.38,56,240,56s184,82.38,184,184C423.885,341.573,341.573,423.885,240,424z"/>
	</g>
</g>
<g>
	<g>
		<rect x="232" y="80" width="16" height="16"/>
	</g>
</g>
<g>
	<g>
		<rect x="232" y="384" width="16" height="16"/>
	</g>
</g>
<g>
	<g>
		
			<rect x="155.999" y="100.37" transform="matrix(0.8659 -0.5001 0.5001 0.8659 -32.2136 96.5469)" width="15.992" height="15.992"/>
	</g>
</g>
<g>
	<g>
		
			<rect x="307.98" y="363.598" transform="matrix(0.8659 -0.5001 0.5001 0.8659 -143.4903 207.8452)" width="15.992" height="15.992"/>
	</g>
</g>
<g>
	<g>
		<rect x="100.362" y="156.004" transform="matrix(0.5 -0.866 0.866 0.5 -87.8516 175.8396)" width="16" height="16"/>
	</g>
</g>
<g>
	<g>
		<rect x="363.615" y="308.032" transform="matrix(0.5 -0.866 0.866 0.5 -87.89 479.8291)" width="16" height="16"/>
	</g>
</g>
<g>
	<g>
		<rect x="80" y="232" width="16" height="16"/>
	</g>
</g>
<g>
	<g>
		<rect x="384" y="232" width="16" height="16"/>
	</g>
</g>
<g>
	<g>
		<rect x="100.365" y="308.001" transform="matrix(0.8661 -0.4999 0.4999 0.8661 -143.4624 96.4955)" width="16" height="16"/>
	</g>
</g>
<g>
	<g>
		<rect x="363.607" y="155.99" transform="matrix(0.866 -0.5 0.5 0.866 -32.2077 207.788)" width="16" height="16"/>
	</g>
</g>
<g>
	<g>
		
			<rect x="155.97" y="363.629" transform="matrix(0.5001 -0.8659 0.8659 0.5001 -239.8465 327.747)" width="15.992" height="15.992"/>
	</g>
</g>
<g>
	<g>
		
			<rect x="308.005" y="100.375" transform="matrix(0.5001 -0.8659 0.8659 0.5001 64.1135 327.8111)" width="15.992" height="15.992"/>
	</g>
</g>
<g>
	<g>
		<path d="M232,112v123.472l-76.12,45.672l8.24,13.712l80-48c2.407-1.446,3.88-4.048,3.88-6.856V112H232z"/>
	</g>
</g>
<g>
</g>
<g>
</g>
<g>
</g>
<g>
</g>
<g>
</g>
<g>
</g>
<g>
</g>
<g>
</g>
<g>
</g>
<g>
</g>
<g>
</g>
<g>
</g>
<g>
</g>
<g>
</g>
<g>
</g>
</svg>
