<svg width="114" height="143" viewBox="0 0 114 143" fill="none" xmlns="http://www.w3.org/2000/svg">
<path d="M66.9999 14V72.5L86.4999 53C88.8333 51.1667 94.6999 49 99.4999 55C104.3 61 101.5 65.8333 99.4999 67.5L66.9999 100C65.3332 101.833 60.9999 105.5 56.9999 105.5C52.9999 105.5 48.6667 101.833 47 100L14.5 67.5C12.5 65.8333 9.7 61 14.5 55C19.3 49 25.1667 51.1667 27.5 53L47 72.5V14C47.3333 11 49.7999 5 56.9999 5C64.1999 5 66.6666 11 66.9999 14Z" stroke-width="10"/>
<path d="M5 127.5C5 119.5 11.3333 117.5 14.5 117.5H56.9999H99.4998C102.666 117.5 109 119.5 109 127.5C109 135.5 102.666 137.5 99.4998 137.5H56.9999H14.5C11.3333 137.5 5 135.5 5 127.5Z" stroke-width="10"/>
</svg>
