<svg width="120" height="48" viewBox="0 0 120 48" fill="none" xmlns="http://www.w3.org/2000/svg">
<path d="M37.288 41.624C38.312 44.2693 39.784 45.6347 41.704 45.72V47C39.9973 46.872 37.7147 46.808 34.856 46.808C31.1867 46.808 28.456 46.872 26.664 47V45.72C28.2853 45.6347 29.4373 45.4427 30.12 45.144C30.8453 44.8027 31.208 44.2053 31.208 43.352C31.208 42.6267 30.952 41.624 30.44 40.344L26.536 29.848H11.048L8.424 36.632C7.57067 38.936 7.144 40.6853 7.144 41.88C7.144 43.2027 7.592 44.1627 8.488 44.76C9.42667 45.3573 10.8347 45.6773 12.712 45.72V47C10.28 46.872 7.82667 46.808 5.352 46.808C3.432 46.808 1.832 46.872 0.552 47V45.72C2.68533 45.208 4.37067 43.352 5.608 40.152L20.648 1.368H21.672L37.288 41.624ZM26.024 28.568L18.856 9.432L11.56 28.568H26.024ZM63.9985 23.064C68.6918 23.704 72.0412 25.0693 74.0465 27.16C76.0518 29.208 77.0545 31.6827 77.0545 34.584C77.0545 37.016 76.4358 39.1707 75.1985 41.048C73.9612 42.9253 72.1905 44.3973 69.8865 45.464C67.5825 46.488 64.8518 47 61.6945 47C60.5425 47 59.5612 46.9787 58.7505 46.936C56.0198 46.8507 53.3318 46.808 50.6865 46.808C47.1878 46.808 44.5425 46.872 42.7505 47V45.72C44.2865 45.6347 45.3958 45.464 46.0785 45.208C46.8038 44.952 47.2945 44.4613 47.5505 43.736C47.8065 43.0107 47.9345 41.8373 47.9345 40.216V8.472C47.9345 6.85066 47.8065 5.67733 47.5505 4.952C47.2945 4.22667 46.8038 3.736 46.0785 3.48C45.3958 3.224 44.2865 3.05333 42.7505 2.968V1.688C44.5425 1.816 47.1452 1.88 50.5585 1.88L57.4705 1.816C58.2812 1.77333 59.1985 1.752 60.2225 1.752C64.5745 1.752 67.9025 2.66933 70.2065 4.504C72.5532 6.33866 73.7265 8.77066 73.7265 11.8C73.7265 14.2747 72.9372 16.4933 71.3585 18.456C69.8225 20.4187 67.3692 21.912 63.9985 22.936V23.064ZM58.6225 2.968C57.2998 2.968 56.2972 3.11733 55.6145 3.416C54.9745 3.71466 54.5265 4.248 54.2705 5.016C54.0145 5.784 53.8865 6.936 53.8865 8.472V22.936H58.1745C61.6732 22.936 64.1052 21.9973 65.4705 20.12C66.8785 18.2 67.5825 15.6613 67.5825 12.504C67.5825 9.304 66.8785 6.91467 65.4705 5.336C64.0625 3.75733 61.7798 2.968 58.6225 2.968ZM58.6865 45.528C66.6652 45.528 70.6545 41.7947 70.6545 34.328C70.6545 30.9573 69.7372 28.3973 67.9025 26.648C66.1105 24.8987 63.2305 24.024 59.2625 24.024H53.8865V40.216C53.8865 41.752 54.0145 42.8827 54.2705 43.608C54.5265 44.3333 54.9745 44.8453 55.6145 45.144C56.2972 45.4 57.3212 45.528 58.6865 45.528ZM103.682 0.791996C106.242 0.791996 108.418 1.15466 110.21 1.88C112.002 2.60533 113.751 3.62933 115.458 4.952C115.927 5.336 116.332 5.528 116.674 5.528C117.527 5.528 118.082 4.248 118.338 1.688H119.81C119.639 4.46133 119.554 9.368 119.554 16.408H118.082C117.612 13.6347 117.186 11.6507 116.802 10.456C116.418 9.21866 115.778 8.04533 114.882 6.936C113.602 5.272 111.959 4.03467 109.954 3.224C107.991 2.37066 105.858 1.944 103.554 1.944C100.78 1.944 98.3482 2.86133 96.2575 4.696C94.2095 6.53067 92.6095 9.15466 91.4575 12.568C90.3055 15.9387 89.7295 19.9067 89.7295 24.472C89.7295 29.1227 90.3482 33.112 91.5855 36.44C92.8228 39.768 94.5295 42.3067 96.7055 44.056C98.9242 45.7627 101.42 46.616 104.194 46.616C106.327 46.616 108.396 46.2107 110.402 45.4C112.407 44.5893 113.986 43.3733 115.138 41.752C115.991 40.5573 116.61 39.2773 116.994 37.912C117.378 36.5467 117.74 34.456 118.082 31.64H119.554C119.554 38.9787 119.639 44.0987 119.81 47H118.338C118.21 45.6347 118.018 44.6747 117.762 44.12C117.548 43.5227 117.228 43.224 116.802 43.224C116.46 43.224 116.012 43.3947 115.458 43.736C113.538 45.1013 111.703 46.1467 109.954 46.872C108.204 47.5547 106.092 47.896 103.618 47.896C99.5642 47.896 96.0015 46.9787 92.9295 45.144C89.9002 43.3093 87.5322 40.664 85.8255 37.208C84.1615 33.7093 83.3295 29.5493 83.3295 24.728C83.3295 20.0347 84.1828 15.8747 85.8895 12.248C87.6388 8.62133 90.0495 5.80533 93.1215 3.8C96.2362 1.79466 99.7562 0.791996 103.682 0.791996Z" fill="#A0C4FF"/>
</svg>
