<svg width="96" height="119" viewBox="0 0 96 119" fill="none" xmlns="http://www.w3.org/2000/svg">
<path d="M65.4783 65.6651C70.091 61.1492 72.9585 54.8573 72.9585 47.8876C72.9585 34.1184 61.771 22.9818 48.0006 22.9818C34.2299 22.9818 23.044 34.1187 23.0432 47.8873V47.8876C23.0432 54.8566 25.9093 61.1486 30.5212 65.6647C24.7698 67.9832 19.5896 71.4099 15.2464 75.6762C8.85202 68.1867 5 58.4913 5 47.8876C5 24.2135 24.2412 5 48.0001 5C71.7582 5 91 24.2136 91 47.8876C91 58.4914 87.1479 68.1869 80.7534 75.6765C76.4099 71.4103 71.2295 67.9837 65.4783 65.6651Z" fill="#3063E4" stroke="#3063E4" stroke-width="10"/>
<path d="M60.5256 101.574C60.5256 108.346 54.9013 114 47.7576 114C40.6139 114 34.9896 108.346 34.9896 101.574C34.9896 94.8026 40.614 89.1482 47.7576 89.1482C54.9013 89.1482 60.5256 94.8027 60.5256 101.574Z" fill="#3063E4" stroke="#3063E4" stroke-width="10"/>
</svg>
