<svg width="130" height="130" viewBox="0 0 130 130" fill="none" xmlns="http://www.w3.org/2000/svg">
<g clip-path="url(#clip0)">
<path d="M111.042 41.8333H46.0416C36.4158 41.8333 28.5833 34.0007 28.5833 24.375C28.5833 14.7492 36.4158 6.91663 46.0416 6.91663H111.042C120.667 6.91663 128.5 14.7492 128.5 24.375C128.5 34.0007 120.667 41.8333 111.042 41.8333ZM46.0416 9.33329C37.749 9.33329 30.9999 16.0824 30.9999 24.375C30.9999 32.6676 37.749 39.4166 46.0416 39.4166H111.042C119.334 39.4166 126.083 32.6676 126.083 24.375C126.083 16.0824 119.334 9.33329 111.042 9.33329H46.0416Z"  stroke-width="3"/>
<path d="M51.4583 31C47.8071 31 44.8333 28.0262 44.8333 24.375C44.8333 20.7238 47.8071 17.75 51.4583 17.75C55.1094 17.75 58.0833 20.7238 58.0833 24.375C58.0833 28.0262 55.1094 31 51.4583 31ZM51.4583 20.1667C49.1348 20.1667 47.2499 22.0516 47.2499 24.375C47.2499 26.6984 49.1348 28.5833 51.4583 28.5833C53.7817 28.5833 55.6666 26.6984 55.6666 24.375C55.6666 22.0516 53.7817 20.1667 51.4583 20.1667Z"  stroke-width="3"/>
<path d="M78.5417 31C74.8906 31 71.9167 28.0262 71.9167 24.375C71.9167 20.7238 74.8906 17.75 78.5417 17.75C82.1929 17.75 85.1667 20.7238 85.1667 24.375C85.1667 28.0262 82.1929 31 78.5417 31ZM78.5417 20.1667C76.2183 20.1667 74.3334 22.0516 74.3334 24.375C74.3334 26.6984 76.2183 28.5833 78.5417 28.5833C80.8652 28.5833 82.7501 26.6984 82.7501 24.375C82.7501 22.0516 80.8652 20.1667 78.5417 20.1667Z"  stroke-width="3"/>
<path d="M111.042 85.1667H46.0416C36.4158 85.1667 28.5833 77.3341 28.5833 67.7083C28.5833 58.0826 36.4158 50.25 46.0416 50.25H111.042C120.667 50.25 128.5 58.0826 128.5 67.7083C128.5 77.3341 120.667 85.1667 111.042 85.1667ZM46.0416 52.6667C37.749 52.6667 30.9999 59.4157 30.9999 67.7083C30.9999 76.0009 37.749 82.75 46.0416 82.75H111.042C119.334 82.75 126.083 76.0009 126.083 67.7083C126.083 59.4157 119.334 52.6667 111.042 52.6667H46.0416Z"  stroke-width="3"/>
<path d="M51.4583 74.3334C47.8071 74.3334 44.8333 71.3595 44.8333 67.7084C44.8333 64.0572 47.8071 61.0834 51.4583 61.0834C55.1094 61.0834 58.0833 64.0572 58.0833 67.7084C58.0833 71.3595 55.1094 74.3334 51.4583 74.3334ZM51.4583 63.5C49.1348 63.5 47.2499 65.3849 47.2499 67.7084C47.2499 70.0318 49.1348 71.9167 51.4583 71.9167C53.7817 71.9167 55.6666 70.0318 55.6666 67.7084C55.6666 65.3849 53.7817 63.5 51.4583 63.5Z"  stroke-width="3"/>
<path d="M78.5417 74.3334C74.8906 74.3334 71.9167 71.3595 71.9167 67.7084C71.9167 64.0572 74.8906 61.0834 78.5417 61.0834C82.1929 61.0834 85.1667 64.0572 85.1667 67.7084C85.1667 71.3595 82.1929 74.3334 78.5417 74.3334ZM78.5417 63.5C76.2183 63.5 74.3334 65.3849 74.3334 67.7084C74.3334 70.0318 76.2183 71.9167 78.5417 71.9167C80.8652 71.9167 82.7501 70.0318 82.7501 67.7084C82.7501 65.3849 80.8652 63.5 78.5417 63.5Z"  stroke-width="3"/>
<path d="M111.042 128.5H46.0416C36.4158 128.5 28.5833 120.667 28.5833 111.042C28.5833 101.416 36.4158 93.5834 46.0416 93.5834H111.042C120.667 93.5834 128.5 101.416 128.5 111.042C128.5 120.667 120.667 128.5 111.042 128.5ZM46.0416 96C37.749 96 30.9999 102.749 30.9999 111.042C30.9999 119.334 37.749 126.083 46.0416 126.083H111.042C119.334 126.083 126.083 119.334 126.083 111.042C126.083 102.749 119.334 96 111.042 96H46.0416Z"  stroke-width="3"/>
<path d="M51.4583 117.667C47.8071 117.667 44.8333 114.693 44.8333 111.042C44.8333 107.39 47.8071 104.417 51.4583 104.417C55.1094 104.417 58.0833 107.39 58.0833 111.042C58.0833 114.693 55.1094 117.667 51.4583 117.667ZM51.4583 106.833C49.1348 106.833 47.2499 108.718 47.2499 111.042C47.2499 113.365 49.1348 115.25 51.4583 115.25C53.7817 115.25 55.6666 113.365 55.6666 111.042C55.6666 108.718 53.7817 106.833 51.4583 106.833Z"  stroke-width="3"/>
<path d="M78.5417 117.667C74.8906 117.667 71.9167 114.693 71.9167 111.042C71.9167 107.39 74.8906 104.417 78.5417 104.417C82.1929 104.417 85.1667 107.39 85.1667 111.042C85.1667 114.693 82.1929 117.667 78.5417 117.667ZM78.5417 106.833C76.2183 106.833 74.3334 108.718 74.3334 111.042C74.3334 113.365 76.2183 115.25 78.5417 115.25C80.8652 115.25 82.7501 113.365 82.7501 111.042C82.7501 108.718 80.8652 106.833 78.5417 106.833Z"  stroke-width="3"/>
<path d="M28.2917 112.25H13.5417C6.90593 112.25 1.5 106.844 1.5 100.208V35.2083C1.5 28.5726 6.90593 23.1666 13.5417 23.1666H28.2917V25.5833H13.5417C8.23366 25.5833 3.91667 29.9003 3.91667 35.2083V100.208C3.91667 105.516 8.23366 109.833 13.5417 109.833H28.2917V112.25Z"  stroke-width="3"/>
<path d="M4.20825 66.5H28.2916V68.9167H4.20825V66.5Z"  stroke-width="3"/>
</g>
<defs>
<clipPath id="clip0">
<rect width="130" height="130" fill="white"/>
</clipPath>
</defs>
</svg>
