<svg width="257" height="364" viewBox="0 0 257 364" fill="none" xmlns="http://www.w3.org/2000/svg">
<path d="M40.187 320C65.1535 301.054 94.8137 256.703 95.9654 174H161.535C162.686 256.703 192.346 301.054 217.313 320H40.187Z" stroke-width="10"/>
<path d="M185 61C185 91.9279 159.928 117 129 117C98.0721 117 73 91.9279 73 61C73 30.0721 98.0721 5 129 5C159.928 5 185 30.0721 185 61Z" stroke-width="10"/>
<path d="M80 135H180C182.761 135 185 137.239 185 140V150.5C185 153.261 182.761 155.5 180 155.5H80C77.2386 155.5 75 153.261 75 150.5V140C75 137.239 77.2386 135 80 135Z" stroke-width="10"/>
<path d="M10 338.5H247C249.761 338.5 252 340.739 252 343.5V354C252 356.761 249.761 359 247 359H10C7.23858 359 5 356.761 5 354V343.5C5 340.739 7.23858 338.5 10 338.5Z" stroke-width="10"/>
</svg>
