<svg width="121" height="154" viewBox="0 0 121 154" fill="none" xmlns="http://www.w3.org/2000/svg">
<path d="M32 126.494C40.2508 136.849 49.8224 146.096 60.4741 154C71.1368 146.119 80.7254 136.897 89 126.567L60.4525 99L32 126.494Z" fill="#ED6D0B"/>
<path d="M18.8718 106.889L60.4839 67.1313L102.178 107C109.247 94.4949 114.441 81.0285 117.593 67.0285C117.735 66.3495 117.858 65.679 118 65H3C6.11442 79.6857 11.4668 93.8116 18.8718 106.889V106.889Z" fill="#ED6D0B"/>
<path d="M19 107.089C22.8769 114.043 27.2953 120.677 32.2137 126.929L60.4582 99.2613L88.7971 127C93.713 120.764 98.128 114.143 102 107.201L60.4582 67L19 107.089Z" fill="#ED6D0B"/>
<path d="M60.4511 98.5238L32.492 125.927C27.8636 119.989 23.6877 113.707 20 107.135L60.4596 68L101 107.247C97.3166 113.807 93.1434 120.076 88.5165 126L60.4511 98.5238Z" fill="black"/>
<path d="M60.4582 68.4968L100.657 107.4C97.1054 113.68 93.1058 119.693 88.6898 125.391L61.2069 98.486L60.4582 97.7538L59.7094 98.486L32.3188 125.317C27.9009 119.605 23.8986 113.58 20.343 107.287L60.4625 68.4968H60.4582ZM60.4625 67L19 107.089C22.8769 114.043 27.2953 120.677 32.2137 126.929L60.4582 99.2613L88.7971 127C93.713 120.764 98.128 114.143 102 107.201L60.4582 67H60.4625Z" fill="black"/>
<path d="M120.472 22.5056C115.466 24.0271 110.262 24.7979 105.029 24.7929C96.0977 24.8414 87.3054 22.5842 79.5052 18.2403C71.705 13.8963 65.1616 7.61302 60.5097 0C55.8547 7.61257 49.3091 13.8952 41.5074 18.239C33.7056 22.5828 24.9123 24.8403 15.9798 24.7929C10.7549 24.7961 5.55816 24.029 0.557712 22.5163C-0.692472 36.725 0.161914 51.0401 3.09332 65H117.855C120.804 51.0392 121.686 36.722 120.472 22.5056V22.5056Z" fill="black"/>
<path d="M88.9805 40.2359V35.4156H85.9749V32.0165L82.8264 31.1498H82.6099V28.2584C82.6099 28.2584 81.5272 29.5331 76.5467 29.5331C71.8283 29.5331 69.0566 28.0332 65.3039 28.0332C64.4055 27.9313 63.4955 28.0648 62.6667 28.4201C61.8379 28.7753 61.1198 29.3397 60.5855 30.0557V31.222H60.4621V30.0557C59.9253 29.3424 59.2068 28.7802 58.3787 28.4252C57.5505 28.0702 56.6418 27.9351 55.7437 28.0332C51.9889 28.0332 49.2193 29.5437 44.4987 29.5437C39.5183 29.5437 38.6521 28.269 38.6521 28.269V31.3091H38.4464L35.0294 32.0144V35.4135H32V40.2338H35.0164V48.0368H32V52.8592H35.0164V58.8565C38.2433 59.3272 41.4987 59.5862 44.7607 59.6319C50.2912 59.6319 53.4808 58.848 57.0711 58.7821V60.2947C58.1339 60.7584 59.2838 60.9986 60.4469 61C61.6491 60.9914 62.838 60.7518 63.9462 60.2947V58.7864C67.5257 58.8565 70.7175 59.6361 76.2782 59.6361C79.5309 59.5895 82.7768 59.3305 85.9944 58.8607V52.8592H89V48.0368H85.9749V40.2359H88.9805Z" fill="white"/>
<path d="M82.7239 30.8507L82.7387 27.1181L81.8427 28.0732C81.8427 28.0732 80.7344 29.1915 76.265 29.1915L70.2223 28.378L65.2433 27.6761C64.3784 27.6116 63.5101 27.7403 62.6999 28.053C61.8897 28.3657 61.1575 28.8548 60.5552 29.4856C59.9515 28.8567 59.2191 28.3689 58.4093 28.0563C57.5994 27.7437 56.7318 27.614 55.8671 27.6761L50.8924 28.3888L44.8412 29.2023C40.4461 29.2023 39.5331 28.129 39.5204 28.129L38.6095 27L38.5861 28.4252V31.001L35 31.763V59.7634L35.4246 59.8235C38.6124 60.3051 41.8285 60.5704 45.0514 60.6177C48.9149 60.5557 52.7725 60.2877 56.6081 59.8149V61.0856L56.8905 61.238C58.0051 61.7401 59.2118 61.9998 60.4321 62C61.6852 61.9924 62.9243 61.7334 64.0776 61.238L64.3749 61.0963V59.8085C68.2204 60.2821 72.0879 60.5501 75.9614 60.6112C79.1799 60.5632 82.3918 60.2979 85.5754 59.8171L86 59.757V31.7844L82.7239 30.8507ZM61.0669 30.4944C61.5482 29.8549 62.1869 29.3541 62.9193 29.0419C63.6517 28.7297 64.4523 28.617 65.2412 28.715L69.9972 29.3954L76.2735 30.2304C78.1321 30.3462 79.9929 30.0404 81.7196 29.3353V55.8096C79.9683 56.4138 78.1227 56.6894 76.2735 56.6231L70.2223 55.8096L65.2433 55.1078C63.7383 55.0281 62.2557 55.5016 61.069 56.4407L61.0669 30.4944ZM39.6223 29.3869C41.2753 30.0712 43.061 30.3648 44.8433 30.2454L51.1153 29.4126L55.8692 28.7215C56.6579 28.6265 57.4575 28.7406 58.1894 29.0525C58.9212 29.3645 59.5602 29.8637 60.0435 30.5009V56.4514C58.8458 55.5027 57.3481 55.026 55.8289 55.1099L50.8499 55.8225L44.8433 56.6253C40.4482 56.6253 39.5352 55.5521 39.5225 55.5521C39.5097 55.5521 39.601 31.1555 39.6117 29.3847L39.6223 29.3869ZM84.9957 58.864C82.0082 59.2974 78.9962 59.5355 75.9784 59.5767C71.9547 59.5061 67.9375 59.2195 63.9439 58.7181L63.3664 58.6365V60.4159C62.4319 60.7642 61.4449 60.9465 60.449 60.9547C59.4934 60.9468 58.5467 60.768 57.6527 60.4267V58.6365L57.0731 58.7181C53.0893 59.2185 49.0821 59.5051 45.0684 59.5767C42.0456 59.5358 39.0286 59.2978 36.0361 58.864V32.5979C36.5096 32.5078 37.9109 32.2008 38.5968 32.0592V55.8504C38.8473 56.3999 39.9238 57.6599 44.8433 57.6599L51.0707 56.8356L55.8289 56.1445C56.6243 56.0472 57.431 56.16 58.1704 56.4718C58.9098 56.7837 59.5566 57.284 60.0478 57.9239L60.1943 57.8423H60.9289L61.069 57.9239C61.5503 57.2844 62.189 56.7836 62.9214 56.4714C63.6538 56.1592 64.4544 56.0465 65.2433 56.1445L69.9993 56.8271L76.2756 57.6599C81.2631 57.6599 82.5073 56.3377 82.6326 56.1853L82.7281 31.9304C83.3821 32.1128 84.5796 32.4498 84.9957 32.5743V58.864Z" fill="black"/>
<path d="M46.9686 34.2032C46.805 34.206 46.6456 34.2507 46.5086 34.332C46.3717 34.4133 46.2627 34.5279 46.1943 34.6629L44.5683 37.9468C44.5302 37.9734 44.4857 37.9917 44.4385 38C44.3883 38 44.3297 37.9468 44.29 37.8462C44.2502 37.7455 44.0514 37.2764 43.6266 36.3704L43.1013 35.3048C42.913 34.9079 42.7644 34.6477 42.7141 34.566C42.6454 34.4564 42.5458 34.3654 42.4256 34.3024C42.3053 34.2393 42.1687 34.2064 42.0298 34.207C42.0078 34.1782 41.9974 34.1433 42.0005 34.1083C41.9981 34.0744 42.0045 34.0406 42.0194 34.0095H42.2872C42.5949 34.0095 42.8523 34.0266 43.0804 34.0266C43.3482 34.0266 43.794 34 44.0911 34H44.269C44.2983 34 44.3088 34.0627 44.3088 34.0912C44.3111 34.1282 44.3039 34.1653 44.2879 34.1994C44.0891 34.2165 43.6433 34.1994 43.6433 34.4615C43.6425 34.5353 43.656 34.6086 43.6831 34.6781L44.7545 36.982L45.646 35.0826C45.7257 34.9247 45.7664 34.753 45.7653 34.5793C45.7653 34.3628 45.5958 34.264 45.1501 34.2203C45.1356 34.1913 45.1257 34.1606 45.1208 34.1292C45.1245 34.0889 45.1344 34.0492 45.1501 34.0114H45.2798C45.4786 34.0114 45.6753 34.038 46.1169 34.038C46.1964 34.038 46.504 34.0209 46.6526 34.0209H46.9602C46.9791 34.057 47 34.0741 47 34.1102C46.9962 34.1427 46.9855 34.1743 46.9686 34.2032V34.2032Z" fill="black"/>
<path d="M51.74 38C50.2455 38 49.4369 37.9726 49.2323 37.9726C49.0735 37.9726 48.7077 37.9726 48.5248 37.9726C48.3419 37.9726 47.8413 38 47.3215 38H47.0255C47.0076 37.9716 47 37.9396 47.0038 37.9079C46.9987 37.8708 46.9987 37.8333 47.0038 37.7962C47.2629 37.7936 47.5188 37.7497 47.7571 37.6668C47.8779 37.478 47.9328 37.2659 47.9159 37.0534C47.9159 36.8672 47.9159 36.6614 47.9159 36.4498C47.9159 36.144 47.9159 35.7717 47.9159 35.3268V34.6957C47.9159 34.2587 47.6416 34.2587 47.0832 34.2038C47.0714 34.1706 47.0641 34.1364 47.0616 34.1019C47.0616 34.0745 47.0616 34.0078 47.1073 34H47.3816C47.5645 34 48.0531 34 48.9893 34C49.8436 34 50.6739 34 50.8592 34C50.9723 34 51.3044 34 51.3718 34C51.4849 34 51.5307 34 51.5307 34.0921L51.598 35.0015C51.5307 35.0289 51.5186 35.0387 51.4609 35.0387C51.4234 35.0436 51.3852 35.0436 51.3478 35.0387C51.1789 34.7584 50.9235 34.5186 50.6065 34.343C50.4777 34.2748 50.3269 34.2393 50.1733 34.2411C50.1059 34.2411 49.9327 34.2411 49.5115 34.2411C49.1698 34.2411 48.9989 34.2411 48.9532 34.2411C48.9074 34.2411 48.9074 34.2411 48.8858 34.3998C48.8858 34.4919 48.8641 34.6781 48.8641 35.2073V35.7325H49.035C49.2227 35.7347 49.4101 35.7189 49.5933 35.6854C49.7949 35.6375 49.9711 35.5361 50.0939 35.3974C50.1456 35.2889 50.1843 35.1767 50.2094 35.0622C50.2583 35.0414 50.3132 35.0319 50.3683 35.0348C50.4123 35.0344 50.4556 35.0439 50.4934 35.0622C50.4934 35.2288 50.4477 35.5365 50.4477 35.9265C50.4477 36.1225 50.4693 36.5497 50.4693 36.7261C50.45 36.7381 50.4278 36.7467 50.4042 36.7514C50.3806 36.7561 50.3561 36.7568 50.3322 36.7536C50.2866 36.758 50.2405 36.758 50.195 36.7536C50.1493 36.4106 50.0819 36.1774 49.7281 36.0578C49.5553 35.9987 49.3692 35.9699 49.1818 35.9735C49.0783 35.9735 48.9532 35.9735 48.8497 35.9912V37.0397C48.8361 37.1998 48.8589 37.3606 48.9171 37.514C48.9436 37.5664 48.9838 37.6136 49.0349 37.6522C49.086 37.6907 49.1468 37.7198 49.2131 37.7374C49.3641 37.7584 49.5172 37.7675 49.6703 37.7648H50.3779C50.5603 37.7722 50.7426 37.7502 50.9146 37.7001C51.2607 37.4695 51.5311 37.1725 51.7015 36.8359C51.7492 36.8213 51.7999 36.8147 51.8507 36.8163C51.9022 36.8175 51.9529 36.8268 51.9999 36.8437V37.902C52.0024 37.9902 51.9229 38 51.74 38Z" fill="black"/>
<path d="M56.8732 35.2574C56.8395 35.2574 56.7939 35.2574 56.7363 35.2574C56.6466 35.0507 56.5239 34.8543 56.3712 34.6735C56.2664 34.5564 56.1298 34.4604 55.972 34.3929C55.8142 34.3254 55.6393 34.2882 55.4609 34.2842C55.348 34.2842 55.0742 34.2842 54.9806 34.2842V36.0457C54.9806 36.3221 54.9806 36.6453 54.9806 37.2526C54.9806 37.7139 55.2424 37.7139 55.8332 37.7781C55.8605 37.8111 55.8763 37.8494 55.8788 37.8891C55.8784 37.9246 55.8668 37.9594 55.8452 37.9903H55.6291C55.288 37.9903 54.6059 37.9727 54.3897 37.9727C54.2408 37.9727 53.4915 38 53.1384 38C53.1218 37.9851 53.1092 37.9675 53.1013 37.9484C53.0935 37.9293 53.0906 37.9091 53.0928 37.8891C53.0946 37.8537 53.1061 37.8191 53.1264 37.7878C53.9118 37.7411 53.9911 37.6224 54.0151 37.42C54.0367 37.2915 54.0367 36.7659 54.0367 36.2307V34.7747C54.0414 34.611 54.0261 34.4474 53.9911 34.2861C53.7351 34.2782 53.4789 34.2939 53.2273 34.3328C52.7692 34.5091 52.4141 34.8234 52.2378 35.2088C52.1963 35.2134 52.1543 35.2134 52.1129 35.2088C52.0918 35.2104 52.0705 35.2079 52.0509 35.2014C52.0312 35.195 52.0138 35.1848 52 35.1718V34.1479C52 34.0564 52 34.0273 52.1465 34.0273C52.293 34.0273 52.4419 34.0273 52.6821 34.0273C52.8526 34.0273 53.5707 34.0273 54.469 34.0273C55.6531 34.0273 56.5273 34 56.7555 34C56.8684 34 56.95 34 56.9957 34.037C57.0014 34.0862 57.0014 34.1357 56.9957 34.1849V35.2088C56.9824 35.225 56.9641 35.2381 56.9426 35.2466C56.921 35.2552 56.8971 35.2589 56.8732 35.2574V35.2574Z" fill="black"/>
<path d="M46.881 41.5981C46.8355 41.5981 46.802 41.5981 46.7326 41.5981C46.6526 41.3369 46.5296 41.0913 46.3685 40.8717C46.2652 40.7248 46.1293 40.6045 45.9716 40.5204C45.814 40.4363 45.639 40.3908 45.4608 40.3874C45.3482 40.3874 45.0752 40.3874 44.9818 40.3874V42.5666C44.9818 42.9104 44.9818 43.3123 44.9818 44.0702C44.9818 44.6441 45.2548 44.6441 45.844 44.724C45.8686 44.7655 45.8803 44.8136 45.8775 44.862C45.8816 44.9051 45.8742 44.9486 45.856 44.9879H45.6404C45.2884 44.9879 44.6082 44.9661 44.4046 44.9661C44.2561 44.9661 43.5089 45 43.1448 45C43.1202 44.9584 43.1086 44.9103 43.1113 44.862C43.1141 44.8194 43.1213 44.7772 43.1328 44.7361C43.916 44.678 43.9951 44.5303 44.0286 44.2784C44.0286 44.1186 44.0286 43.4649 44.0286 42.799V40.9637C44.0369 40.7605 44.0256 40.5569 43.9951 40.3559C43.7366 40.3462 43.478 40.3657 43.2239 40.414C42.7708 40.6348 42.421 41.0258 42.2491 41.5036C42.2037 41.509 42.1579 41.509 42.1126 41.5036C42.0916 41.5046 42.0708 41.5009 42.0513 41.493C42.0319 41.4851 42.0144 41.473 42 41.4576V40.184C42 40.0678 42.0216 40.0339 42.1485 40.0339C42.2754 40.0339 42.4431 40.0339 42.6826 40.0339C42.8646 40.0339 43.5783 40.0339 44.4765 40.0339C45.6452 40.0339 46.529 40 46.7445 40C46.8691 40 46.9481 40 46.984 40.046C47.02 40.092 46.984 40.1622 46.984 40.23V41.5036C46.9762 41.5269 46.9626 41.5478 46.9446 41.5643C46.9266 41.5808 46.9047 41.5924 46.881 41.5981V41.5981Z" fill="black"/>
<path d="M51.727 45C50.252 45 49.4355 44.9659 49.2439 44.9659C49.0524 44.9659 48.7219 44.9659 48.5256 44.9659C48.3292 44.9659 47.8455 45 47.3283 45H47.0338C47.0123 44.9648 47.0007 44.9244 47.0002 44.883C46.9981 44.8271 47.0104 44.7715 47.0362 44.7221C47.2903 44.7213 47.5415 44.6665 47.7737 44.5612C47.8647 44.4588 47.9102 44.2491 47.9317 43.7981C47.9317 43.5666 47.9533 43.3106 47.9533 43.0473C47.9533 42.667 47.9533 42.2038 47.9533 41.6504C47.9533 41.2579 47.9533 41.0263 47.9533 40.8654C47.9533 40.3218 47.6923 40.3218 47.1367 40.2535C47.1166 40.2143 47.1051 40.171 47.1032 40.1268C47.1032 40.0926 47.1248 40.0122 47.1607 40H47.4217C47.6156 40 48.0921 40 49.0212 40C49.8832 40 50.6974 40 50.8937 40H51.3918C51.5163 40 51.5618 40 51.5618 40.117L51.6193 41.2482C51.5801 41.2787 51.5321 41.295 51.4828 41.2945C51.4454 41.2997 51.4076 41.2997 51.3702 41.2945C51.1975 40.9464 50.932 40.6549 50.604 40.4534C50.48 40.3692 50.334 40.325 50.185 40.3267C50.1179 40.3267 49.9455 40.3267 49.5169 40.3267C49.1864 40.3267 49.0069 40.3267 48.9709 40.3267C48.935 40.3267 48.9135 40.3267 48.8919 40.5241C48.8919 40.6387 48.8919 40.8703 48.8919 41.5285V42.1599H49.05C49.2368 42.1638 49.4234 42.1441 49.6055 42.1014C49.8098 42.0428 49.9892 41.9167 50.1155 41.7431C50.1632 41.6079 50.1977 41.4683 50.2185 41.3262C50.268 41.3028 50.322 41.2911 50.3765 41.2921C50.4243 41.2893 50.4719 41.3012 50.513 41.3262C50.513 41.5334 50.4555 41.9161 50.4555 42.4013C50.4555 42.6451 50.4891 43.1741 50.4891 43.3935C50.4496 43.4223 50.4007 43.4345 50.3526 43.4276C50.3033 43.4335 50.2534 43.4335 50.2041 43.4276C50.1586 43.001 50.1035 42.7109 49.7396 42.5622C49.5708 42.4894 49.3888 42.4537 49.2056 42.4573C49.0951 42.4587 48.9848 42.466 48.8752 42.4793V43.7835C48.8661 43.982 48.8855 44.1807 48.9326 44.3735C48.9781 44.4539 49.0907 44.6173 49.2272 44.6514C49.3767 44.6763 49.5282 44.6877 49.6797 44.6855H50.3981C50.5756 44.6944 50.7531 44.667 50.9201 44.6051C51.2715 44.3223 51.5453 43.952 51.7151 43.53C51.7625 43.5122 51.8131 43.5047 51.8635 43.508C51.9108 43.5096 51.9573 43.5212 52 43.5422V44.8586C51.988 44.9878 51.909 45 51.727 45Z" fill="black"/>
<path d="M54.5978 44.9944C54.2764 44.9787 53.9615 44.8814 53.6742 44.709C53.6274 44.6841 53.5773 44.6692 53.5261 44.6649C53.4176 44.7029 53.3169 44.7668 53.2299 44.8529C53.1843 44.8558 53.1388 44.844 53.0983 44.8187C53.0578 44.7934 53.0239 44.7555 53 44.709C53 44.6093 53.074 44.3123 53.074 44.1267C53.074 44.0177 53.0468 43.4795 53.037 43.3565C53.0576 43.3246 53.0842 43.2989 53.1147 43.2816C53.1451 43.2643 53.1786 43.2558 53.2124 43.2568H53.2767C53.386 43.5734 53.5089 43.8831 53.645 44.1847C53.7568 44.3344 53.8931 44.4555 54.0456 44.5404C54.198 44.6254 54.3634 44.6725 54.5316 44.6789C54.647 44.6941 54.7638 44.6814 54.8749 44.6415C54.9861 44.6017 55.0894 44.5355 55.1785 44.4469C55.2522 44.3809 55.311 44.2943 55.3497 44.1947C55.3885 44.0952 55.406 43.9857 55.4006 43.8762C55.4108 43.7215 55.3711 43.568 55.2896 43.447C55.1804 43.2872 55.037 43.1653 54.8745 43.0944C54.6991 42.9946 54.0795 42.809 53.8593 42.6652C53.6492 42.5591 53.4606 42.401 53.3059 42.2012C53.1532 41.9488 53.0726 41.6446 53.076 41.3335C53.0784 41.1484 53.1127 40.9659 53.1767 40.7972C53.2407 40.6284 53.3331 40.4771 53.4481 40.3526C53.5632 40.228 53.6984 40.1328 53.8456 40.0729C53.9927 40.013 54.1486 39.9896 54.3036 40.0042C54.643 39.9801 54.979 40.0965 55.2545 40.3337C55.3271 40.2362 55.4045 40.144 55.4864 40.0576C55.5288 40.0519 55.5717 40.0615 55.6095 40.0851C55.6474 40.1086 55.6785 40.1451 55.6988 40.1898C55.666 40.4038 55.6445 40.6199 55.6345 40.8371C55.6345 40.9577 55.6988 41.4635 55.6988 41.5331C55.6507 41.568 55.5969 41.5902 55.5409 41.598C55.5155 41.5952 55.4906 41.5882 55.4669 41.5771C55.3558 41.3451 55.2545 40.9623 55.1337 40.7536C55.0405 40.6118 54.9188 40.5004 54.7798 40.4294C54.6409 40.3585 54.4892 40.3303 54.3387 40.3476C54.2529 40.3367 54.1662 40.346 54.0835 40.3751C54.0008 40.4042 53.9237 40.4525 53.8567 40.5172C53.7897 40.5818 53.7341 40.6616 53.6931 40.752C53.6521 40.8423 53.6264 40.9414 53.6177 41.0435C53.6177 41.4403 53.8866 41.6258 54.1068 41.7395C54.2724 41.8161 54.4751 41.9042 54.7069 41.9924C54.9241 42.0716 55.1369 42.1669 55.3441 42.2777C55.5469 42.3831 55.7181 42.5593 55.835 42.783C55.9519 43.0067 56.009 43.2673 55.9988 43.5305C55.9911 43.7376 55.9482 43.9407 55.8729 44.1275C55.7975 44.3144 55.6912 44.4812 55.5604 44.6179C55.4295 44.7547 55.2768 44.8585 55.1114 44.9232C54.946 44.9879 54.7713 45.0121 54.5978 44.9944V44.9944Z" fill="black"/>
<path d="M47.797 52C46.6018 52 45.9521 51.9657 45.7883 51.9657C45.6611 51.9657 45.368 51.9657 45.2215 51.9657C45.075 51.9657 44.6741 52 44.2577 52H44.0206C44.006 51.9638 43.9999 51.923 44.0032 51.8825C43.9989 51.8361 43.9989 51.7893 44.0032 51.7429C44.2107 51.7392 44.4156 51.6843 44.6066 51.5813C44.7028 51.3452 44.7468 51.0803 44.7338 50.8149C44.7338 50.5823 44.7338 50.3252 44.7338 50.0607C44.7338 49.6787 44.7338 49.2135 44.7338 48.6577V47.8692C44.7338 47.3232 44.5141 47.3232 44.0668 47.2547C44.0576 47.2131 44.0517 47.1704 44.0495 47.1273C44.0495 47.093 44.0495 47.0098 44.0861 47H44.3059C44.4524 47 44.8456 47 45.5936 47C46.2779 47 46.943 47 47.0914 47C47.184 47 47.4481 47 47.502 47C47.5946 47 47.6293 47 47.6293 47.1175L47.6832 48.2537C47.6293 48.288 47.6196 48.3002 47.5733 48.3002C47.5434 48.3065 47.5127 48.3065 47.4827 48.3002C47.3474 47.95 47.1428 47.6505 46.889 47.431C46.7858 47.3459 46.665 47.3016 46.542 47.3036C46.488 47.3036 46.3493 47.3036 46.0119 47.3036C45.7382 47.3036 45.6013 47.3036 45.5647 47.3036C45.528 47.3036 45.528 47.3036 45.5088 47.502C45.5088 47.617 45.4914 47.8497 45.4914 48.5108V49.1596H45.6283C45.7787 49.1624 45.9288 49.1427 46.0755 49.1009C46.2376 49.0411 46.3793 48.9144 46.4784 48.7409C46.5194 48.6055 46.5497 48.4653 46.569 48.3222C46.6082 48.2963 46.6522 48.2845 46.6962 48.288C46.7315 48.2875 46.7662 48.2994 46.7965 48.3222C46.7965 48.5304 46.7599 48.9148 46.7599 49.4021C46.7599 49.6469 46.7772 50.1783 46.7772 50.4011C46.7617 50.416 46.744 50.4268 46.7251 50.4326C46.7062 50.4385 46.6865 50.4395 46.6673 50.4354C46.6308 50.4409 46.5939 50.4409 46.5574 50.4354C46.5208 50.0069 46.4668 49.7155 46.1835 49.5661C46.0445 49.4919 45.8947 49.456 45.7439 49.4608C45.6557 49.4623 45.5675 49.4696 45.4798 49.4829V50.7928C45.469 50.9929 45.4873 51.1938 45.5338 51.3854C45.5551 51.451 45.5873 51.5099 45.6282 51.5581C45.6692 51.6063 45.7179 51.6426 45.7709 51.6645C45.8913 51.6902 46.0133 51.7017 46.1353 51.6988H46.702C46.8481 51.7076 46.9941 51.6802 47.1319 51.618C47.4089 51.3296 47.6254 50.9586 47.7623 50.5382C47.8383 50.4994 47.9233 50.4994 47.9994 50.5382V51.8604C48.0071 51.9878 47.9435 52 47.797 52Z" fill="black"/>
<path d="M54.9803 47.25C54.4848 47.2738 54.0535 47.5429 54.0535 48.3333V50.8381C54.0535 50.9405 54.0988 51.65 54.0988 51.9214C54.0376 51.9617 53.9686 51.9884 53.8963 52C53.8496 51.9834 53.8073 51.9565 53.7724 51.9214L50.3295 48.2214L50.3629 48.9786V50.3429C50.3629 50.4452 50.3843 50.7048 50.4081 50.8952C50.4032 50.9945 50.4223 51.0935 50.4638 51.1839C50.5053 51.2742 50.5679 51.3532 50.6464 51.4143C50.8406 51.5452 51.0675 51.6194 51.3016 51.6286C51.3228 51.6621 51.3343 51.7008 51.335 51.7405C51.33 51.7848 51.3145 51.8272 51.2897 51.8643H50.918C50.6011 51.8643 50.3533 51.8643 50.0269 51.8643C49.8125 51.8643 49.5075 51.8857 49.2931 51.8857H49.1358C49.1309 51.8486 49.1309 51.811 49.1358 51.7738C49.1346 51.7315 49.1419 51.6894 49.1573 51.65C49.4497 51.6368 49.7271 51.5164 49.9364 51.3119C49.9982 51.1231 50.0249 50.9246 50.015 50.7262V48.9643C50.015 48.6833 50.015 48.5357 49.9935 48.2643C49.9983 48.0734 49.9387 47.8864 49.8244 47.7333C49.7538 47.6391 49.674 47.5521 49.5861 47.4738C49.4109 47.3749 49.2256 47.295 49.0334 47.2357C49.0164 47.2004 49.0052 47.1626 49 47.1238C49.0005 47.0804 49.012 47.0378 49.0334 47H49.1573C49.2597 47 49.7886 47.0214 50.1961 47.0214H50.4343C50.4896 47.0459 50.5398 47.0806 50.5821 47.1238L53.1338 49.9095C53.3268 50.1238 53.5746 50.4048 53.7104 50.5857V48.5786C53.7104 48.3071 53.7104 48.1167 53.689 48.0143C53.6755 47.8331 53.6252 47.6565 53.5413 47.4952C53.4626 47.3714 52.9885 47.3024 52.7407 47.2571C52.7228 47.2109 52.7154 47.1613 52.7193 47.1119C52.7146 47.0779 52.7146 47.0435 52.7193 47.0095H52.867C53.1052 47.0095 53.4888 47.0429 53.7247 47.0429C54.3108 47.0429 54.4919 47.0214 54.785 47.0214H54.978C54.9949 47.0604 55.0022 47.1029 54.9994 47.1452C55.0017 47.1812 54.9951 47.2171 54.9803 47.25Z" fill="black"/>
<path d="M68.9682 34.2C68.5713 34.2171 68.1961 34.4343 68.1961 35.0667V37.0705C68.1961 37.1505 68.2239 37.72 68.2239 37.9371C68.1758 37.9692 68.1209 37.9907 68.0631 38C68.0353 38 68.0075 37.9733 67.95 37.9371L65.0818 34.9771L65.1195 35.5829V36.6743C65.1195 36.7562 65.1374 36.9638 65.1473 37.1162C65.1473 37.195 65.1651 37.2729 65.1993 37.3446C65.2336 37.4162 65.2835 37.48 65.3458 37.5314C65.5088 37.6338 65.6971 37.6929 65.8916 37.7029C65.9092 37.7297 65.9189 37.7607 65.9194 37.7924C65.9156 37.8266 65.9062 37.86 65.8916 37.8914H65.5721C65.318 37.8914 65.1116 37.8914 64.8297 37.8914C64.6511 37.8914 64.4069 37.9086 64.2342 37.9086H64.1032C64.0935 37.8795 64.0875 37.8495 64.0853 37.819C64.085 37.7842 64.0946 37.75 64.1131 37.72C64.3533 37.7071 64.5804 37.611 64.7523 37.4495C64.8086 37.2996 64.8309 37.1398 64.8178 36.981V35.5714C64.8178 35.3467 64.8178 35.2286 64.8178 35.0114C64.817 34.8594 64.7678 34.7112 64.6769 34.5867C64.6166 34.5125 64.5502 34.443 64.4784 34.379C64.3332 34.2983 64.1787 34.2344 64.0179 34.1886C64.0099 34.1591 64.004 34.1292 64 34.099C64.0014 34.0654 64.0074 34.0321 64.0179 34H64.131C64.2064 34 64.6491 34.0171 64.9865 34.0171H65.185C65.2321 34.039 65.2761 34.0665 65.316 34.099L67.4418 36.3276C67.6026 36.499 67.8091 36.7238 67.9222 36.8686V35.2629C67.9221 35.112 67.9129 34.9613 67.8944 34.8114C67.8875 34.6657 67.8454 34.5236 67.7713 34.3962C67.7058 34.2971 67.3108 34.2419 67.1123 34.2057C67.0942 34.1688 67.0847 34.1285 67.0846 34.0876C67.0831 34.0593 67.0893 34.0311 67.1024 34.0057H67.2235C67.422 34.0057 67.7416 34.0324 67.9381 34.0324C68.4184 34.0324 68.5772 34.0133 68.8214 34.0133H68.9722C68.9888 34.044 68.9983 34.0778 69 34.1124C68.9966 34.1435 68.9857 34.1735 68.9682 34.2V34.2Z" fill="black"/>
<path d="M73.3907 37.2859C73.2095 37.5091 72.9932 37.6871 72.7543 37.8097C72.5154 37.9322 72.2587 37.9969 71.9989 37.9999C71.7391 38.0029 71.4813 37.9442 71.2405 37.8273C70.9997 37.7103 70.7806 37.5373 70.5958 37.3184C70.2131 36.8306 70 36.1861 70 35.5163C70 34.8466 70.2131 34.2021 70.5958 33.7143C70.7772 33.491 70.9936 33.3129 71.2326 33.1903C71.4716 33.0678 71.7285 33.0031 71.9884 33C72.3561 33.0073 72.716 33.1288 73.0329 33.3525C73.3299 33.5774 73.5744 33.889 73.7435 34.2582C73.9127 34.6273 74.0009 35.0418 74 35.463C74.0006 36.1421 73.7823 36.7953 73.3907 37.2859ZM72.7486 33.8071C72.6625 33.6521 72.5453 33.5256 72.4077 33.4393C72.2701 33.3529 72.1166 33.3095 71.9613 33.3131C71.8138 33.3116 71.6685 33.3564 71.5399 33.443C71.4113 33.5297 71.3039 33.6552 71.2283 33.8071C70.9577 34.3053 70.8294 34.8953 70.8627 35.4885C70.8347 36.0709 70.9562 36.6496 71.2109 37.1467C71.2889 37.3093 71.4018 37.4439 71.5378 37.5365C71.6739 37.629 71.8281 37.6763 71.9845 37.6732C72.1652 37.6788 72.3432 37.6204 72.4963 37.5053C72.6494 37.3902 72.7708 37.2235 72.8453 37.0261C73.0389 36.5516 73.1275 36.0253 73.1025 35.4978C73.1395 34.9032 73.0154 34.3102 72.7486 33.8071V33.8071Z" fill="black"/>
<path d="M79.9562 34.2086C79.7947 34.2128 79.6377 34.258 79.503 34.3391C79.3683 34.4202 79.2614 34.534 79.1943 34.6676L77.5724 37.9469C77.5343 37.9734 77.49 37.9916 77.4429 38C77.3928 38 77.3239 37.9469 77.2947 37.8464C77.2655 37.7459 77.0567 37.2774 76.6226 36.3727L76.109 35.303C75.9212 34.9066 75.773 34.6468 75.7229 34.5652C75.6535 34.4564 75.554 34.3661 75.4342 34.3032C75.3144 34.2403 75.1786 34.207 75.0403 34.2067C75.0261 34.194 75.0151 34.1785 75.0083 34.1614C75.0014 34.1444 74.9988 34.1262 75.0006 34.1081C74.9973 34.0731 75.0077 34.0382 75.0298 34.0095H75.297C75.5934 34.0095 75.8502 34.0266 76.0777 34.0266C76.3449 34.0266 76.7896 34 77.0964 34H77.2655C77.3052 34 77.3156 34.0626 77.3156 34.091C77.3183 34.1279 77.3119 34.1648 77.2968 34.1991C77.0881 34.2162 76.6539 34.1991 76.6539 34.4609C76.6482 34.5348 76.6618 34.6089 76.6935 34.6771L77.7519 36.9777L78.6516 35.0811C78.7241 34.9218 78.761 34.7509 78.7601 34.5785C78.7601 34.3623 78.591 34.2636 78.1464 34.22C78.1355 34.1906 78.1291 34.16 78.1276 34.129C78.1284 34.0892 78.1347 34.0497 78.1464 34.0114H78.2758C78.4741 34.0114 78.6724 34.0379 79.1275 34.0379C79.1964 34.0379 79.5137 34.0209 79.6619 34.0209H79.9688C79.9891 34.049 80 34.082 80 34.1157C80 34.1494 79.9891 34.1824 79.9688 34.2105L79.9562 34.2086Z" fill="black"/>
<path d="M67.881 41.5981C67.8355 41.5981 67.802 41.5981 67.7326 41.5981C67.6526 41.3369 67.5296 41.0913 67.3685 40.8717C67.2653 40.7247 67.1294 40.6043 66.9717 40.5202C66.8141 40.4361 66.6391 40.3906 66.4608 40.3874C66.3458 40.3874 66.0752 40.3874 65.9818 40.3874V42.5666C65.9818 42.9104 65.9818 43.3123 65.9818 44.0702C65.9818 44.6441 66.2548 44.6441 66.844 44.724C66.8686 44.7655 66.8803 44.8136 66.8775 44.862C66.8816 44.9051 66.8742 44.9486 66.856 44.9879H66.6404C66.2884 44.9879 65.6082 44.9661 65.4046 44.9661C65.2561 44.9661 64.5089 45 64.1448 45C64.1202 44.9584 64.1086 44.9103 64.1113 44.862C64.1138 44.8193 64.121 44.7771 64.1328 44.7361C64.916 44.678 64.995 44.5303 65.0286 44.2784C65.0286 44.1186 65.0286 43.4649 65.0286 42.799V40.9637C65.0366 40.7605 65.0254 40.557 64.995 40.3559C64.7366 40.3463 64.478 40.3658 64.2239 40.414C63.7708 40.6348 63.421 41.0258 63.2491 41.5036C63.2037 41.509 63.1579 41.509 63.1126 41.5036C63.0916 41.5046 63.0708 41.5009 63.0513 41.493C63.0319 41.4851 63.0144 41.473 63 41.4576V40.184C63 40.0678 63.0216 40.0339 63.1485 40.0339C63.2754 40.0339 63.4431 40.0339 63.6826 40.0339C63.8646 40.0339 64.5783 40.0339 65.4764 40.0339C66.6452 40.0339 67.529 40 67.7445 40C67.8691 40 67.9481 40 67.984 40.046C68.02 40.092 67.984 40.1622 67.984 40.23V41.5036C67.9762 41.5269 67.9626 41.5478 67.9446 41.5643C67.9266 41.5808 67.9047 41.5924 67.881 41.5981V41.5981Z" fill="black"/>
<path d="M72.9623 45H72.6169C72.4075 45 72.15 44.9666 71.8924 44.9666C71.4863 44.9666 70.9691 45 70.7723 45C70.7498 44.964 70.7394 44.92 70.743 44.876C70.7443 44.837 70.7506 44.7984 70.7619 44.7616C71.1806 44.7401 71.346 44.6614 71.346 44.4683C71.3394 44.25 71.2953 44.0354 71.2162 43.8364C71.0864 43.474 71.0173 43.3166 70.988 43.226C70.9691 43.1927 70.9587 43.1688 70.8686 43.1688H69.5182C69.3716 43.4613 69.2643 43.7772 69.2 44.1059C69.1793 44.1978 69.1695 44.2924 69.1706 44.3872C69.1706 44.5446 69.3005 44.7258 69.7757 44.7377C69.7972 44.7787 69.8074 44.826 69.805 44.8736C69.8095 44.9108 69.8095 44.9485 69.805 44.9857H69.6857C69.3675 44.9857 69.2795 44.9642 68.9424 44.9642C68.7331 44.9642 68.1992 44.9857 68.0191 44.9857C68.008 44.9529 68.0016 44.9183 68.0003 44.8832C67.9985 44.8408 68.005 44.7984 68.0191 44.7592C68.2578 44.734 68.4786 44.604 68.6347 44.3968C68.8501 43.9953 69.033 43.5723 69.1811 43.133C69.4198 42.4774 69.7066 41.6524 69.8364 41.3138C70.0144 40.8846 70.0751 40.7487 70.1337 40.5985C70.2238 40.3839 70.3222 40.1693 70.362 40.0906C70.4068 40.0378 70.4672 40.0056 70.5315 40C70.5676 40.0002 70.6033 40.0095 70.6358 40.0273C70.6684 40.045 70.6971 40.0707 70.72 40.1025C70.7594 40.1783 70.7923 40.2581 70.8184 40.341C71.0675 41.0181 71.2643 41.6166 71.5721 42.4535C71.7312 42.8708 71.8108 43.1426 71.9783 43.5837C72.0976 43.8555 72.1667 44.0606 72.286 44.3181C72.4452 44.69 72.7048 44.69 72.9602 44.7687C72.9602 44.8021 73 44.8355 73 44.8808C73 44.9261 72.9812 44.9547 72.9623 45ZM70.2531 41.1254C70.1631 41.3186 70.0039 41.7358 69.9453 41.917C69.7171 42.5489 69.6375 42.7635 69.5978 42.8541H70.877C70.7702 42.5584 70.4415 41.6667 70.2531 41.1254Z" fill="black"/>
<path d="M79.93 45L77.997 44.978H77.4677C77.4494 44.9382 77.4383 44.8951 77.435 44.8511C77.433 44.8278 77.436 44.8044 77.4436 44.7824C77.4513 44.7605 77.4635 44.7406 77.4793 44.7241C77.6358 44.7241 77.792 44.7086 77.9457 44.6777C78.1439 44.585 78.2209 44.3774 78.2209 44.0771V40.4761L77.2042 42.8125C77.0946 43.0566 76.971 43.3447 76.8498 43.623C76.689 43.9918 76.5489 44.3701 76.43 44.7559C76.4182 44.7873 76.3966 44.8136 76.3686 44.8305C76.3407 44.8473 76.308 44.8537 76.2761 44.8486C76.2109 44.8486 76.1666 44.8267 76.1316 44.7095C75.9987 44.4092 75.9101 44.2212 75.8658 44.0845L74.2755 40.4224H74.2428V41.3599L74.2755 43.6963C74.2755 44.4141 74.6299 44.7485 75.1709 44.7485C75.1913 44.7841 75.2063 44.8228 75.2152 44.8633C75.2134 44.9076 75.2022 44.951 75.1825 44.9902C75.1499 44.9902 75.038 44.9902 74.9494 44.9902C74.8608 44.9902 74.5296 44.9561 74.0166 44.9561C73.8721 44.9561 73.5759 44.9561 73.3428 44.9561H73.0233C73.0102 44.915 73.0024 44.8723 73 44.8291C73.0046 44.7934 73.0124 44.7583 73.0233 44.7241C73.2668 44.6796 73.5026 44.5974 73.7228 44.48C73.8231 44.375 73.9117 44.1675 73.9117 43.6694V41.1133C73.9117 40.708 73.8558 40.5469 73.6785 40.4077C73.4751 40.3358 73.2633 40.293 73.049 40.2808C73.029 40.2372 73.0179 40.1899 73.0163 40.1416C73.0192 40.0935 73.0302 40.0464 73.049 40.0024C73.2378 40.0024 73.5689 40.0244 73.9001 40.0244H75.066C75.11 40.0561 75.1448 40.1001 75.1662 40.1514L76.5909 43.5278L76.8451 42.8564C77.0666 42.312 77.3861 41.4917 77.8384 40.6128C77.9387 40.415 78.06 40.1611 78.1252 40.0342L79.937 40C79.9613 40.038 79.9765 40.0815 79.9813 40.127C79.9809 40.1715 79.9696 40.2152 79.9487 40.2539C79.7505 40.2881 79.4077 40.2881 79.2492 40.5786C79.1932 40.6714 79.1606 40.7642 79.1606 41.1694V43.5864C79.1606 44.5117 79.3821 44.6045 79.4823 44.6729C79.6401 44.7198 79.8034 44.7428 79.9674 44.7412C79.9883 44.78 79.9995 44.8236 80 44.8682C79.965 44.9414 79.9417 44.9536 79.93 45Z" fill="black"/>
<path d="M67.8834 48.5801C67.8379 48.5801 67.8044 48.5801 67.735 48.5801C67.655 48.3183 67.532 48.0721 67.3709 47.8519C67.2676 47.7047 67.1317 47.5842 66.974 47.4998C66.8164 47.4155 66.6414 47.3699 66.4632 47.3665C66.3506 47.3665 66.0776 47.3665 65.9842 47.3665V49.5631C65.9842 49.9078 65.9842 50.3107 65.9842 51.068C65.9842 51.6432 66.2572 51.6432 66.8464 51.7233C66.871 51.765 66.8827 51.8132 66.8799 51.8617C66.884 51.9049 66.8766 51.9485 66.8584 51.9879H66.6428C66.2908 51.9879 65.6106 51.966 65.407 51.966C65.2585 51.966 64.5113 52 64.1472 52C64.1226 51.9583 64.111 51.9101 64.1137 51.8617C64.1165 51.8189 64.1237 51.7766 64.1352 51.7354C64.9184 51.6772 64.9974 51.5291 65.031 51.2767C65.031 51.1165 65.031 50.4612 65.031 49.7937V47.9757C65.0392 47.772 65.028 47.568 64.9974 47.3665C64.739 47.3568 64.4804 47.3763 64.2263 47.4248C63.7726 47.646 63.422 48.0378 63.2491 48.517C63.2037 48.5224 63.1579 48.5224 63.1126 48.517C63.0916 48.5179 63.0708 48.5143 63.0513 48.5063C63.0319 48.4984 63.0144 48.4863 63 48.4709V47.1845C63 47.068 63.0216 47.034 63.1485 47.034C63.2754 47.034 63.4431 47.034 63.6826 47.034C63.8646 47.034 64.5783 47.034 65.4765 47.034C66.6452 47.034 67.529 47 67.7445 47C67.8691 47 67.9481 47 67.984 47.0461C68.02 47.0922 67.984 47.1626 67.984 47.2306V48.5073C67.9735 48.5261 67.9591 48.5424 67.9417 48.555C67.9243 48.5676 67.9044 48.5761 67.8834 48.5801V48.5801Z" fill="black"/>
<path d="M72.9624 47.2585C72.8007 47.2637 72.6435 47.3202 72.5086 47.4217C72.3738 47.5232 72.2667 47.6655 72.1996 47.8325L70.5756 51.9336C70.5375 51.9668 70.4931 51.9896 70.446 52C70.3958 52 70.3268 51.9336 70.2976 51.8079C70.2683 51.6822 70.0593 51.0963 69.6246 49.9649L69.1104 48.6271C68.9223 48.1338 68.7739 47.8064 68.7237 47.7068C68.6541 47.571 68.5544 47.4581 68.4345 47.3795C68.3146 47.3009 68.1787 47.2592 68.0403 47.2585C68.0262 47.2425 68.0153 47.2231 68.0084 47.2018C68.0016 47.1805 67.9989 47.1578 68.0005 47.1352C67.9974 47.0915 68.0078 47.0479 68.0298 47.0119H68.2973C68.5941 47.0119 68.8512 47.0332 69.079 47.0332C69.3466 47.0332 69.7918 47 70.099 47H70.2683C70.308 47 70.3185 47.0783 70.3185 47.1138C70.3212 47.1599 70.3148 47.2062 70.2997 47.2491C70.0906 47.2704 69.6559 47.249 69.6559 47.574C69.6503 47.6664 69.6639 47.759 69.6956 47.8444L70.7553 50.7215L71.6561 48.3496C71.7286 48.1503 71.7656 47.9367 71.7648 47.7211C71.7648 47.4507 71.5955 47.3273 71.1503 47.2728C71.1391 47.2361 71.1328 47.1977 71.1315 47.1589C71.132 47.1092 71.1383 47.0597 71.1503 47.0119H71.2757C71.4743 47.0119 71.6708 47.0451 72.1264 47.0451C72.1954 47.0451 72.5131 47.0237 72.6615 47.0237H72.9687C72.9891 47.0589 73 47.1002 73 47.1423C73 47.1845 72.9891 47.2257 72.9687 47.2609L72.9624 47.2585Z" fill="black"/>
<path d="M79.9639 52L78.037 51.9781H77.4945C77.4786 51.9381 77.4715 51.8949 77.4735 51.8517C77.4696 51.8294 77.4705 51.8065 77.4762 51.7846C77.4819 51.7627 77.4921 51.7424 77.5062 51.7252C77.6694 51.726 77.8323 51.7105 77.9926 51.679C78.182 51.5866 78.2592 51.3799 78.2592 51.0807V48.1649C78.2592 48.1649 78.2592 47.6347 78.2592 47.4864H78.2381L77.2303 49.8137C77.1087 50.0569 76.9964 50.3439 76.8655 50.6211C76.6433 51.1634 76.51 51.5306 76.4445 51.7495C76.4235 51.8419 76.3463 51.8419 76.2902 51.8419C76.2341 51.8419 76.1897 51.82 76.1452 51.7033C76.0236 51.4042 75.9348 51.2169 75.8903 51.0807L74.2838 47.4329H74.2511V48.3667L74.2838 50.6941C74.2838 51.409 74.6393 51.7422 75.1911 51.7422C75.2091 51.7777 75.2202 51.8166 75.2239 51.8565C75.2267 51.8998 75.2195 51.9432 75.2028 51.983C75.1584 51.983 75.0578 51.983 74.9479 51.983C74.8825 51.983 74.5387 51.9489 74.0289 51.9489C73.8746 51.9489 73.5753 51.9489 73.3531 51.9489H73.0327C73.0117 51.9103 73.0005 51.8668 73 51.8225C73.0038 51.7856 73.015 51.75 73.0327 51.7179C73.2766 51.6721 73.5128 51.5902 73.7343 51.4747C73.8848 51.2365 73.9479 50.9499 73.912 50.6673V49.4927V48.1089C73.912 47.7053 73.8676 47.5447 73.6782 47.4061C73.4778 47.3358 73.2695 47.2933 73.0585 47.2797C73.0303 47.2393 73.0148 47.1909 73.014 47.1411C73.0168 47.0916 73.0321 47.0437 73.0585 47.0024C73.2362 47.0024 73.5799 47.0243 73.9003 47.0243H75.0695C75.1101 47.0568 75.141 47.1007 75.1584 47.1508L76.5872 50.5141L76.8538 49.8453C77.1462 49.0819 77.4788 48.3358 77.85 47.6104C77.9388 47.4134 78.0721 47.1605 78.1376 47.034L79.9429 47C79.9639 47.0462 79.999 47.0803 79.999 47.1265C79.9941 47.1717 79.9789 47.2151 79.9546 47.2529C79.7652 47.287 79.4237 47.287 79.253 47.5764C79.1969 47.6688 79.1525 47.7612 79.1525 48.1649V50.5725C79.1525 51.4942 79.3746 51.5866 79.4845 51.6547C79.6362 51.702 79.7939 51.7249 79.9522 51.7228C79.981 51.7581 79.9968 51.8029 79.9967 51.8492C80.0084 51.9416 79.9873 51.9538 79.9639 52Z" fill="black"/>
</svg>
