<svg width="300" height="300" viewBox="0 0 300 300" fill="none" xmlns="http://www.w3.org/2000/svg">
<path d="M0 50C0 22.4 22.4 0 50 0H250C277.6 0 300 22.4 300 50V250C300 277.6 277.6 300 250 300H50C22.4 300 0 277.6 0 250V50Z" fill="white"/>
<path d="M202.9 132C206 132 208.7 134 209.6 136.9C210.5 139.8 209.4 143 206.9 144.7L54 250.6C52.8 251.4 51.4 251.8 50 251.8C48.6 251.8 47.3 251.4 46.1 250.6C43.7 249 42.6 246.1 43.2 243.3L67 132H202.9Z" fill="#FF595E"/>
<path d="M228.8 258.8L140.7 212.2C138.4 211 135.6 211.2 133.4 212.6L66.0999 259.2C63.5999 261 62.4999 264.1 63.3999 267.1C64.2999 270 66.9999 272 70.0999 272H225.5C228.7 272 231.5 269.8 232.3 266.7C233.1 263.5 231.6 260.3 228.8 258.8Z" fill="#FFCA3A"/>
<path d="M258.3 245.5L237.6 152.3C237.1 150 235.5 148.2 233.3 147.3C231.1 146.4 228.7 146.7 226.8 148.1L159.4 194.7C157.4 196.1 156.3 198.4 156.4 200.9C156.5 203.3 158 205.5 160.1 206.7L248.1 253.3C249.1 253.8 250.3 254.1 251.4 254.1C252.9 254.1 254.4 253.6 255.6 252.7C257.8 250.9 258.9 248.1 258.3 245.5Z" fill="#1982C4"/>
<path d="M121.7 62V72V62ZM87.5 23H88C116.9 23 140 45.7 140 73.3C140 101 116.9 123.6 88 123.6C59.1 123.6 36 100.9 36 73.3C36 45.8 58.9 23.3 87.5 23Z" fill="white" stroke="white" stroke-width="10"/>
<path d="M88 128.7C42.9 127.8 31.6 91.4 31.6 73.4C31.6 123.7 62.3 179 88 179C113.7 179 144.4 123.7 144.4 73.3C144.4 91.4 133.1 127.8 88 128.7Z" fill="white" stroke="white"/>
<path d="M87.5 30H88C112.9 30 133 50.1 133 75C133 99.9 112.9 120 88 120C63.1 120 43 99.9 43 75C43 50.3 62.9 30.3 87.5 30Z" stroke="black" stroke-width="10"/>
<path d="M88 35C65.9 35 48 52.9 48 75C48 97.1 65.9 115 88 115C110.1 115 128 97.1 128 75C128 52.9 110.1 35 88 35ZM106.3 92.7C105.6 93.9 104 94.2 102.9 93.5C93.5 87.8 81.7 86.5 67.8 89.6C66.5 89.9 65.1 89.1 64.8 87.7C64.5 86.4 65.3 85 66.7 84.7C81.9 81.2 95 82.7 105.6 89.2C106.7 90 107.1 91.5 106.3 92.7ZM111.2 81.8C110.3 83.3 108.4 83.7 106.9 82.8C96.1 76.2 79.8 74.3 67 78.1C65.4 78.6 63.6 77.7 63.1 76C62.6 74.4 63.5 72.6 65.2 72.1C79.7 67.7 97.8 69.8 110.1 77.4C111.7 78.4 112.1 80.3 111.2 81.8ZM111.7 70.5C98.8 62.8 77.5 62.1 65.2 65.9C63.2 66.5 61.1 65.4 60.5 63.4C59.9 61.4 61 59.3 63 58.7C77.1 54.4 100.6 55.2 115.5 64.1C117.3 65.2 117.9 67.5 116.8 69.2C115.7 70.9 113.4 71.5 111.7 70.5Z" fill="#1ED760"/>
<path d="M88 125C48.4 124.2 38.5 91.3 38.5 75C38.5 120.5 65.5 170.5 88 170.5C110.5 170.5 137.5 120.5 137.5 75C137.5 91.3 127.6 124.2 88 125Z" fill="black" stroke="black"/>
<path d="M87.5 30H88C112.9 30 133 50.1 133 75C133 99.9 112.9 120 88 120C63.1 120 43 99.9 43 75C43 50.3 62.9 30.3 87.5 30Z" stroke="#0B5B28" stroke-width="10"/>
<path d="M88 35C65.9 35 48 52.9 48 75C48 97.1 65.9 115 88 115C110.1 115 128 97.1 128 75C128 52.9 110.1 35 88 35ZM106.3 92.7C105.6 93.9 104 94.2 102.9 93.5C93.5 87.8 81.7 86.5 67.8 89.6C66.5 89.9 65.1 89.1 64.8 87.7C64.5 86.4 65.3 85 66.7 84.7C81.9 81.2 95 82.7 105.6 89.2C106.7 90 107.1 91.5 106.3 92.7ZM111.2 81.8C110.3 83.3 108.4 83.7 106.9 82.8C96.1 76.2 79.8 74.3 67 78.1C65.4 78.6 63.6 77.7 63.1 76C62.6 74.4 63.5 72.6 65.2 72.1C79.7 67.7 97.8 69.8 110.1 77.4C111.7 78.4 112.1 80.3 111.2 81.8ZM111.7 70.5C98.8 62.8 77.5 62.1 65.2 65.9C63.2 66.5 61.1 65.4 60.5 63.4C59.9 61.4 61 59.3 63 58.7C77.1 54.4 100.6 55.2 115.5 64.1C117.3 65.2 117.9 67.5 116.8 69.2C115.7 70.9 113.4 71.5 111.7 70.5Z" fill="#1ED760"/>
<path d="M88 124C48.4 123.2 38.5 90.3 38.5 74C38.5 119.5 65.5 169.5 88 169.5C110.5 169.5 137.5 119.5 137.5 74C137.5 90.3 127.6 123.2 88 124Z" fill="#0B5B28" stroke="#0B5B28"/>
<path d="M241 118.3V128.3V118.3ZM216.1 93H216.5C236.9 93 253 108.8 253 127.9C253 147 236.9 162.8 216.5 162.8C196.1 162.8 180 147 180 127.9C180 108.9 195.9 93.2 216.1 93Z" fill="white" stroke="white" stroke-width="10"/>
<path d="M216.5 167.7C183.6 167.1 175.4 140.9 175.4 127.8C175.4 164.1 197.8 203.9 216.5 203.9C235.2 203.9 257.6 164 257.6 127.8C257.6 140.9 249.4 167.1 216.5 167.7Z" fill="white" stroke="white"/>
<path d="M216.3 98.5H216.6C233.4 98.5 247.2 112.3 247.2 129.4C247.2 146.5 233.5 160.3 216.6 160.3C199.8 160.3 186 146.5 186 129.4C186 112.4 199.6 98.7 216.3 98.5Z" stroke="#0B5B28" stroke-width="10"/>
<path d="M216.6 100.7C200.9 100.7 188.1 113.5 188.1 129.4C188.1 145.3 200.8 158.1 216.6 158.1C232.3 158.1 245.1 145.3 245.1 129.4C245 113.5 232.3 100.7 216.6 100.7ZM229.6 142.1C229.1 142.9 228 143.2 227.2 142.7C220.5 138.6 212.1 137.7 202.2 139.9C201.2 140.1 200.3 139.5 200.1 138.6C199.9 137.6 200.5 136.7 201.4 136.5C212.2 134 221.5 135.1 229 139.7C229.9 140.1 230.1 141.2 229.6 142.1ZM233.1 134.3C232.5 135.4 231.1 135.7 230 135C222.3 130.3 210.7 128.9 201.6 131.7C200.4 132.1 199.2 131.4 198.8 130.2C198.4 129 199.1 127.8 200.3 127.4C210.6 124.2 223.5 125.8 232.3 131.2C233.4 131.8 233.8 133.2 233.1 134.3ZM233.4 126.1C224.2 120.6 209.1 120.1 200.3 122.8C198.9 123.2 197.4 122.4 197 121C196.6 119.6 197.4 118.1 198.8 117.7C208.9 114.6 225.6 115.2 236.1 121.5C237.4 122.3 237.8 123.9 237 125.2C236.3 126.5 234.7 126.9 233.4 126.1Z" fill="#1ED760"/>
<path d="M216.6 162.3C188.4 161.7 181.4 140.1 181.4 128.4C181.4 161 200.6 196.9 216.6 196.9C232.6 196.9 251.8 161 251.8 128.4C251.8 140.1 244.8 161.7 216.6 162.3Z" fill="#0B5B28" stroke="#0B5B28"/>
</svg>
