<svg width="1866" height="1027" viewBox="0 0 1866 1027" fill="none" xmlns="http://www.w3.org/2000/svg">
<circle cx="1782" cy="292" r="1" fill="#C4C4C4"/>
<circle cx="1865" cy="892" r="1" fill="#C4C4C4"/>
<circle cx="1375" cy="661" r="1" fill="#C4C4C4"/>
<circle cx="592" cy="259" r="1" fill="#C4C4C4"/>
<circle cx="600" cy="485" r="1" fill="#C4C4C4"/>
<circle cx="871" cy="511" r="1" fill="#C4C4C4"/>
<circle cx="1034" cy="290" r="1" fill="#C4C4C4"/>
<circle cx="1583" cy="321" r="1" fill="#C4C4C4"/>
<circle cx="1375" cy="97" r="1" fill="#C4C4C4"/>
<circle cx="108" cy="193" r="1" fill="#C4C4C4"/>
<circle cx="946" cy="835" r="1" fill="#C4C4C4"/>
<circle cx="531" cy="614" r="1" fill="#C4C4C4"/>
<circle cx="1716" cy="1026" r="1" fill="#C4C4C4"/>
<circle cx="1779" cy="723" r="1" fill="#C4C4C4"/>
<circle cx="1591" cy="241" r="1" fill="#C4C4C4"/>
<circle cx="1692" cy="412" r="1" fill="#C4C4C4"/>
<circle cx="1819" cy="98" r="1" fill="#C4C4C4"/>
<circle cx="1487" cy="669" r="1" fill="#C4C4C4"/>
<circle cx="1522" cy="482" r="1" fill="#C4C4C4"/>
<circle cx="1699" cy="28" r="1" fill="#C4C4C4"/>
<circle cx="1393" cy="284" r="1" fill="#C4C4C4"/>
<circle cx="365" cy="934" r="1" fill="#C4C4C4"/>
<circle cx="1329" cy="832" r="1" fill="#C4C4C4"/>
<circle cx="1" cy="881" r="1" fill="#C4C4C4"/>
<circle cx="1062" cy="498" r="1" fill="#C4C4C4"/>
<circle cx="1114" cy="158" r="1" fill="#C4C4C4"/>
<circle cx="6" cy="67" r="1" fill="#C4C4C4"/>
<circle cx="67" cy="457" r="1" fill="#C4C4C4"/>
<circle cx="393" cy="314" r="1" fill="#C4C4C4"/>
<circle cx="738" cy="438" r="1" fill="#C4C4C4"/>
<circle cx="962" cy="1018" r="1" fill="#C4C4C4"/>
<circle cx="195" cy="1011" r="1" fill="#C4C4C4"/>
<circle cx="1484" cy="80" r="1" fill="#C4C4C4"/>
<circle cx="564" cy="103" r="1" fill="#C4C4C4"/>
<circle cx="370" cy="879" r="1" fill="#C4C4C4"/>
<circle cx="804" cy="667" r="1" fill="#C4C4C4"/>
<circle cx="1591" cy="147" r="1" fill="#C4C4C4"/>
<circle cx="1289" cy="223" r="1" fill="#C4C4C4"/>
<circle cx="906" cy="319" r="1" fill="#C4C4C4"/>
<circle cx="786" cy="981" r="1" fill="#C4C4C4"/>
<circle cx="1194" cy="999" r="1" fill="#C4C4C4"/>
<circle cx="1067" cy="845" r="1" fill="#C4C4C4"/>
<circle cx="1568" cy="958" r="1" fill="#C4C4C4"/>
<circle cx="1697" cy="881" r="1" fill="#C4C4C4"/>
<circle cx="1663" cy="785" r="1" fill="#C4C4C4"/>
<circle cx="1820" cy="239" r="1" fill="#C4C4C4"/>
<circle cx="1748" cy="108" r="1" fill="#C4C4C4"/>
<circle cx="343" cy="747" r="1" fill="#C4C4C4"/>
<circle cx="666" cy="693" r="1" fill="#C4C4C4"/>
<circle cx="121" cy="936" r="1" fill="#C4C4C4"/>
<circle cx="944" cy="513" r="1" fill="#C4C4C4"/>
<circle cx="383" cy="439" r="1" fill="#C4C4C4"/>
<circle cx="743" cy="132" r="1" fill="#C4C4C4"/>
<circle cx="449" cy="1" r="1" fill="#C4C4C4"/>
<circle cx="193" cy="333" r="1" fill="#C4C4C4"/>
<circle cx="1042" cy="940" r="1" fill="#C4C4C4"/>
<circle cx="995" cy="691" r="1" fill="#C4C4C4"/>
<circle cx="1185" cy="587" r="1" fill="#C4C4C4"/>
<circle cx="908" cy="110" r="1" fill="#C4C4C4"/>
<circle cx="481" cy="938" r="1" fill="#C4C4C4"/>
<circle cx="345" cy="145" r="1" fill="#C4C4C4"/>
<circle cx="307" cy="530" r="1" fill="#C4C4C4"/>
<circle cx="129.5" cy="30.5" r="2.5" fill="#C4C4C4"/>
<circle cx="1396.5" cy="984.5" r="2.5" fill="#C4C4C4"/>
<circle cx="507.5" cy="430.5" r="2.5" fill="#C4C4C4"/>
<circle cx="1550.5" cy="788.5" r="2.5" fill="#C4C4C4"/>
<circle cx="1285.5" cy="388.5" r="2.5" fill="#C4C4C4"/>
<circle cx="1389.5" cy="590.5" r="2.5" fill="#C4C4C4"/>
<circle cx="738.5" cy="408.5" r="2.5" fill="#C4C4C4"/>
<circle cx="9.5" cy="516.5" r="2.5" fill="#C4C4C4"/>
<circle cx="1835.5" cy="206.5" r="2.5" fill="#C4C4C4"/>
<circle cx="1568.5" cy="35.5" r="2.5" fill="#C4C4C4"/>
<circle cx="396.5" cy="978.5" r="2.5" fill="#C4C4C4"/>
<circle cx="1780.5" cy="945.5" r="2.5" fill="#C4C4C4"/>
<circle cx="1780.5" cy="583.5" r="2.5" fill="#C4C4C4"/>
<circle cx="734.5" cy="906.5" r="2.5" fill="#C4C4C4"/>
<circle cx="949.5" cy="943.5" r="2.5" fill="#C4C4C4"/>
<circle cx="1085.5" cy="696.5" r="2.5" fill="#C4C4C4"/>
<circle cx="983.5" cy="453.5" r="2.5" fill="#C4C4C4"/>
<circle cx="564.5" cy="696.5" r="2.5" fill="#C4C4C4"/>
<circle cx="1490.5" cy="435.5" r="2.5" fill="#C4C4C4"/>
<circle cx="1142.5" cy="150.5" r="2.5" fill="#C4C4C4"/>
<circle cx="477.5" cy="211.5" r="2.5" fill="#C4C4C4"/>
<circle cx="255.5" cy="226.5" r="2.5" fill="#C4C4C4"/>
<circle cx="196.5" cy="813.5" r="2.5" fill="#C4C4C4"/>
<circle cx="124.5" cy="687.5" r="2.5" fill="#C4C4C4"/>
</svg>
