<svg width="91" height="64" viewBox="0 0 91 64" fill="none" xmlns="http://www.w3.org/2000/svg">
<path d="M15.5 2.5C15.9 2.5 32.1667 13.8333 41 19.5L48 33L53 42L59 48.5M59 48.5L43 47L33.5 44.5L1 25M59 48.5L67.5 53.5M67.5 53.5L86.5 49.5L88.5 54.5L89.5 60M67.5 53.5L61 58L66 62.5" stroke="white"/>
<circle cx="86.5" cy="49.5" r="1.5" fill="white"/>
<circle cx="88.5" cy="54.5" r="1.5" fill="white"/>
<circle cx="89.5" cy="59.5" r="1.5" fill="white"/>
<circle cx="15.5" cy="2.5" r="2.5" fill="white"/>
<circle cx="66.5" cy="62.5" r="1.5" fill="white"/>
<circle cx="61.5" cy="58.5" r="1.5" fill="white"/>
<circle cx="67.5" cy="53.5" r="1.5" fill="white"/>
<circle cx="58.5" cy="48.5" r="1.5" fill="white"/>
<circle cx="43.5" cy="47.5" r="1.5" fill="white"/>
<circle cx="33.5" cy="44.5" r="2.5" fill="white"/>
<circle cx="41.5" cy="19.5" r="1.5" fill="white"/>
<circle cx="53.5" cy="42.5" r="1.5" fill="white"/>
<circle cx="1.5" cy="25.5" r="1.5" fill="white"/>
</svg>
