<svg width="283" height="283" viewBox="0 0 283 283" fill="none" xmlns="http://www.w3.org/2000/svg">
<rect y="141.421" width="200" height="200" transform="rotate(-45 0 141.421)" fill="#F78B29"/>
<circle cx="141" cy="141" r="78" stroke="white" stroke-width="10"/>
<path d="M102.2 159L101.304 154.2C99.64 156.035 97.8267 157.421 95.864 158.36C93.944 159.299 91.768 159.768 89.336 159.768C86.3067 159.768 83.8533 158.915 81.976 157.208C80.0987 155.459 79.16 153.155 79.16 150.296C79.16 146.584 80.6533 143.853 83.64 142.104C86.6267 140.355 90.4667 139.48 95.16 139.48C96.8667 139.48 98.744 139.587 100.792 139.8V137.496C100.792 135.192 100.152 133.357 98.872 131.992C97.6347 130.584 96.0133 129.88 94.008 129.88C91.6187 129.88 89.4427 130.2 87.48 130.84C85.56 131.48 83.576 132.483 81.528 133.848V128.408C83.5333 127.085 85.5813 126.168 87.672 125.656C89.7627 125.101 92.152 124.824 94.84 124.824C98.2533 124.824 101.027 125.912 103.16 128.088C105.336 130.264 106.424 133.144 106.424 136.728V151.576L107.832 159H102.2ZM90.488 155.032C92.536 155.032 94.3707 154.605 95.992 153.752C97.6133 152.899 99.2133 151.661 100.792 150.04V143.768H94.904C88.4613 143.768 85.24 145.837 85.24 149.976C85.24 151.512 85.7307 152.749 86.712 153.688C87.6933 154.584 88.952 155.032 90.488 155.032ZM131.325 159.768C128.21 159.768 125.48 159.021 123.133 157.528C120.786 156.035 118.994 153.987 117.757 151.384C116.52 148.739 115.901 145.752 115.901 142.424C115.901 139.053 116.52 136.045 117.757 133.4C118.994 130.712 120.786 128.621 123.133 127.128C125.48 125.592 128.232 124.824 131.389 124.824C133.608 124.824 135.549 125.059 137.213 125.528C138.877 125.997 140.456 126.851 141.949 128.088V133.528H141.693C140.157 132.248 138.557 131.331 136.893 130.776C135.272 130.221 133.416 129.944 131.325 129.944C128.296 129.944 125.949 131.117 124.285 133.464C122.664 135.811 121.853 138.819 121.853 142.488C121.853 146.029 122.664 148.952 124.285 151.256C125.949 153.517 128.274 154.648 131.261 154.648C133.48 154.648 135.464 154.307 137.213 153.624C138.962 152.899 140.69 151.768 142.397 150.232H142.653V155.672C141.074 157.165 139.368 158.232 137.533 158.872C135.741 159.469 133.672 159.768 131.325 159.768ZM190.144 124.824C193.301 124.824 195.69 125.805 197.312 127.768C198.933 129.688 199.744 132.376 199.744 135.832V159H194.112V136.6C194.112 134.467 193.664 132.824 192.768 131.672C191.872 130.477 190.506 129.88 188.672 129.88C186.794 129.88 185.216 130.221 183.936 130.904C182.656 131.587 181.184 132.696 179.52 134.232C179.562 134.573 179.583 135.107 179.583 135.832V159H173.952V136.6C173.952 134.467 173.504 132.824 172.608 131.672C171.712 130.477 170.346 129.88 168.512 129.88C166.634 129.88 165.056 130.221 163.776 130.904C162.496 131.544 161.045 132.632 159.424 134.168V159H153.792V133.016L152.384 125.592H158.016L158.912 130.2C160.832 128.28 162.56 126.915 164.096 126.104C165.674 125.251 167.637 124.824 169.984 124.824C172.202 124.824 174.037 125.315 175.488 126.296C176.981 127.277 178.069 128.685 178.752 130.52C180.8 128.472 182.613 127.021 184.192 126.168C185.77 125.272 187.754 124.824 190.144 124.824Z" fill="white"/>
</svg>
