<?xml version="1.0" encoding="iso-8859-1"?>
<!-- Generator: Adobe Illustrator 19.0.0, SVG Export Plug-In . SVG Version: 6.00 Build 0)  -->
<svg version="1.1" id="Capa_1" xmlns="http://www.w3.org/2000/svg" xmlns:xlink="http://www.w3.org/1999/xlink" x="0px" y="0px"
	 viewBox="0 0 508 508" style="enable-background:new 0 0 508 508;" xml:space="preserve">
<g>
	<g>
		<path d="M24.6,0v57.4C11,57.4,0,68.4,0,81.9s11,24.6,24.6,24.6V172C11,172.1,0,183.1,0,196.6c0,13.6,11,24.6,24.6,24.6v65.5
			C11,286.8,0,297.8,0,311.4C0,325,11,336,24.6,336v65.5C11,401.5,0,412.5,0,426.1c0,13.6,11,24.6,24.6,24.6V508h376.9V0H24.6z
			 M16.4,81.9c0-4.5,3.7-8.2,8.2-8.2h32.8c4.5,0,8.2,3.7,8.2,8.2s-3.7,8.2-8.2,8.2H24.6C20.1,90.1,16.4,86.5,16.4,81.9z M16.4,196.6
			c0-4.5,3.7-8.2,8.2-8.2h32.8c4.5,0,8.2,3.7,8.2,8.2s-3.7,8.2-8.2,8.2H24.6C20.1,204.8,16.4,201.2,16.4,196.6z M16.4,311.4
			c0-4.5,3.7-8.2,8.2-8.2h32.8c4.5,0,8.2,3.7,8.2,8.2s-3.7,8.2-8.2,8.2H24.6C20.1,319.5,16.4,315.9,16.4,311.4z M16.4,426.1
			c0-4.5,3.7-8.2,8.2-8.2h32.8c4.5,0,8.2,3.7,8.2,8.2s-3.7,8.2-8.2,8.2H24.6C20.1,434.3,16.4,430.6,16.4,426.1z M106.5,16.4v475.2
			H41v-41h16.4c13.6,0,24.6-11,24.6-24.6c0-13.6-11-24.6-24.6-24.6H41v-65.5h16.4c13.6,0,24.6-11,24.6-24.6
			c0-13.6-11-24.6-24.6-24.6H41v-65.5h16.4c13.6,0,24.6-11,24.6-24.6C82,183,71,172,57.4,172H41v-65.5h16.4
			c13.6,0,24.6-11,24.6-24.6S71,57.3,57.4,57.3H41v-41h65.5V16.4z M385.1,491.6H122.9V16.4h262.2V491.6z"/>
	</g>
</g>
<g>
	<g>
		<path d="M483.4,139.3v-16.4c0-18.1-14.7-32.8-32.8-32.8s-32.8,14.7-32.8,32.8v288.7l32.8,65.5l32.8-65.5V155.7h8.2v90.1H508V139.3
			H483.4z M450.7,440.5l-11.4-22.6H462L450.7,440.5z M467,401.5h-32.7v-57.4H467V401.5z M467,327.7h-32.8v-172H467V327.7z
			 M467,139.3h-32.8v-16.4c0.1-9,7.4-16.4,16.4-16.4s16.4,7.3,16.4,16.4V139.3z"/>
	</g>
</g>
<g>
	<g>
		<rect x="213" y="102.4" width="16.4" height="16.4"/>
	</g>
</g>
<g>
	<g>
		<rect x="245.8" y="102.4" width="16.4" height="16.4"/>
	</g>
</g>
<g>
	<g>
		<rect x="278.6" y="102.4" width="16.4" height="16.4"/>
	</g>
</g>
<g>
	<g>
		<path d="M147.5,290.9v114.7h213V290.9H147.5z M344.2,389.2H163.9v-81.9h180.3V389.2z"/>
	</g>
</g>
<g>
</g>
<g>
</g>
<g>
</g>
<g>
</g>
<g>
</g>
<g>
</g>
<g>
</g>
<g>
</g>
<g>
</g>
<g>
</g>
<g>
</g>
<g>
</g>
<g>
</g>
<g>
</g>
<g>
</g>
</svg>
