<?xml version="1.0"?>
<svg xmlns="http://www.w3.org/2000/svg" id="Outline" viewBox="0 0 512 512" width="512" height="512"><path d="M349.657,18.343A8,8,0,0,0,344,16H104A40.045,40.045,0,0,0,64,56V456a40.045,40.045,0,0,0,40,40H408a40.045,40.045,0,0,0,40-40V120a8,8,0,0,0-2.343-5.657ZM352,43.313,420.687,112H376a24.027,24.027,0,0,1-24-24ZM216,336H200V320h16Zm5.479,42.805a8,8,0,0,0,.842,1.952,11.352,11.352,0,0,1,1.679,5.91c0,7.352-7.178,13.333-16,13.333s-16-5.981-16-13.333a11.346,11.346,0,0,1,1.679-5.909,8.009,8.009,0,0,0,.842-1.953L202.061,352h11.878ZM432,456a24.028,24.028,0,0,1-24,24H104a24.028,24.028,0,0,1-24-24V56a24.028,24.028,0,0,1,24-24h96V64H184a8,8,0,0,0,0,16h16v32H184a8,8,0,0,0,0,16h16v32H184a8,8,0,0,0,0,16h16v32H184a8,8,0,0,0,0,16h16v32H184a8,8,0,0,0,0,16h16v32h-8a8,8,0,0,0-8,8v32a7.966,7.966,0,0,0,2.156,5.451l-6.771,24.075A27.447,27.447,0,0,0,176,386.667C176,402.841,190.355,416,208,416s32-13.159,32-29.333a27.446,27.446,0,0,0-3.385-13.14l-6.771-24.076A7.966,7.966,0,0,0,232,344V312a8,8,0,0,0-8-8h-8V272h16a8,8,0,0,0,0-16H216V224h16a8,8,0,0,0,0-16H216V176h16a8,8,0,0,0,0-16H216V128h16a8,8,0,0,0,0-16H216V80h16a8,8,0,0,0,0-16H216V32H336V88a40.045,40.045,0,0,0,40,40h56Z"/></svg>
