<svg width="113" height="97" viewBox="0 0 113 97" fill="none" xmlns="http://www.w3.org/2000/svg">
<path d="M33.6837 19.5739C28.3554 25.0843 24.7269 32.2234 24.0977 39.6916M54.6917 9.09753C47.2235 9.72682 40.0845 13.3553 34.574 18.6835" stroke="#264C71"/>
<path d="M29.2524 38.3838L42.5001 35.0224L36.074 23.7622C32.4853 27.8428 30.0183 32.9099 29.2524 38.3838Z" fill="#1064A7"/>
<path d="M53.3838 14.2523L50.0225 27.5L38.7624 21.0738C42.843 17.4852 47.91 15.0182 53.3838 14.2523Z" fill="#1064A7"/>
<path d="M48.5 33.5L57 42H24H15L24.0976 39.6917L26.675 39.0377L29.2523 38.3837L42.5 35.0224L45.5 34.2612L48.5 33.5Z" fill="#E6A718"/>
<path d="M50.0224 27.5L48.5 33.5L45.5 34.2612L42.5 35.0224L36.0739 23.7622L33.6836 19.5739L32.5 17.5L34.5739 18.6836L38.7623 21.0739L50.0224 27.5Z" fill="#5ED6F6"/>
<path d="M57 42V9V0L54.6917 9.09758L53.3837 14.2523L50.0224 27.5L48.5 33.5L57 42Z" fill="#FEFFFF"/>
<path d="M34.574 65.3163C40.0845 70.6446 47.2236 74.2731 54.6918 74.9023M24.0977 44.3083C24.7269 51.7765 28.3554 58.9155 33.6837 64.426" stroke="#264C71"/>
<path d="M53.3839 69.7476L50.0225 56.4999L38.7624 62.926C42.843 66.5147 47.91 68.9817 53.3839 69.7476Z" fill="#1064A7"/>
<path d="M29.2524 45.6162L42.5001 48.9775L36.074 60.2376C32.4853 56.157 30.0183 51.09 29.2524 45.6162Z" fill="#1064A7"/>
<path d="M48.5 50.5L57 42V75V84L54.6917 74.9024L54.0377 72.325L53.3837 69.7477L50.0224 56.5L49.2612 53.5L48.5 50.5Z" fill="#E6A718"/>
<path d="M42.5 48.9776L48.5 50.5L49.2612 53.5L50.0224 56.5L38.7622 62.9261L34.5739 65.3164L32.5 66.5L33.6836 64.4261L36.0739 60.2377L42.5 48.9776Z" fill="#5ED6F6"/>
<path d="M57 42H24H15L24.0976 44.3083L29.2523 45.6163L42.5 48.9776L48.5 50.5L57 42Z" fill="#FEFFFF"/>
<path d="M80.3163 64.4261C85.6446 58.9157 89.2731 51.7766 89.9023 44.3084M59.3083 74.9025C66.7765 74.2732 73.9155 70.6447 79.426 65.3165" stroke="#264C71"/>
<path d="M84.7476 45.6162L71.4999 48.9776L77.926 60.2378C81.5147 56.1572 83.9817 51.0901 84.7476 45.6162Z" fill="#1064A7"/>
<path d="M60.6162 69.7477L63.9775 56.5L75.2376 62.9262C71.157 66.5148 66.09 68.9818 60.6162 69.7477Z" fill="#1064A7"/>
<path d="M65.5 50.5L57 42L90 42H99L89.9024 44.3083L87.325 44.9623L84.7477 45.6163L71.5 48.9776L68.5 49.7388L65.5 50.5Z" fill="#E6A718"/>
<path d="M63.9776 56.5L65.5 50.5L68.5 49.7388L71.5 48.9776L77.9261 60.2378L80.3164 64.4261L81.5 66.5L79.4261 65.3164L75.2377 62.9261L63.9776 56.5Z" fill="#5ED6F6"/>
<path d="M57 42L57 75V84L59.3083 74.9024L60.6163 69.7477L63.9776 56.5L65.5 50.5L57 42Z" fill="#FEFFFF"/>
<path d="M79.426 18.6837C73.9155 13.3554 66.7764 9.72695 59.3082 9.09766M89.9023 39.6917C89.2731 32.2235 85.6446 25.0845 80.3163 19.574" stroke="#264C71"/>
<path d="M60.6161 14.2524L63.9775 27.5001L75.2376 21.074C71.157 17.4853 66.09 15.0183 60.6161 14.2524Z" fill="#1064A7"/>
<path d="M84.7476 38.3838L71.4999 35.0225L77.926 23.7624C81.5147 27.843 83.9817 32.91 84.7476 38.3838Z" fill="#1064A7"/>
<path d="M65.5 33.5L57 42L57 9V0L59.3083 9.09758L59.9623 11.675L60.6163 14.2523L63.9776 27.5L64.7388 30.5L65.5 33.5Z" fill="#E6A718"/>
<path d="M71.5 35.0224L65.5 33.5L64.7388 30.5L63.9776 27.5L75.2378 21.0739L79.4261 18.6836L81.5 17.5L80.3164 19.5739L77.9261 23.7623L71.5 35.0224Z" fill="#5ED6F6"/>
<path d="M57 42L90 42H99L89.9024 39.6917L84.7477 38.3837L71.5 35.0224L65.5 33.5L57 42Z" fill="#FEFFFF"/>
<path d="M18.4 7.40011C17.6 8.00011 17 10.4001 17 12.4001C17 16.4001 22 17.4001 24.2 13.6001C25.2 12.0001 24.6 11.8001 22 12.6001C19.2 13.8001 18.8 13.2001 19.6 10.0001C20.6 5.80011 20.4 5.20011 18.4 7.40011Z" fill="#1064A7"/>
<path d="M24 8.00005C23.4 9.20005 24.2 9.40005 25.8 8.80005C29.4 7.40005 30 6.00005 27.2 6.00005C26 6.00005 24.6 6.80005 24 8.00005Z" fill="#1064A7"/>
<path d="M85 6.80005C85 7.20005 86.4 8.20005 88.2 8.80005C89.8 9.40005 90.6 9.20005 90 8.00005C88.8 6.00005 85 5.20005 85 6.80005Z" fill="#1064A7"/>
<path d="M94.4 9.99996C95.2 13.2 94.8 13.8 92 12.6C89.4 11.8 88.8 12 89.8 13.6C92.2 17.4 97 16.4 97 12.2C97 9.99996 96.2 7.79996 95.2 7.19996C94.2 6.39996 93.8 7.79996 94.4 9.99996Z" fill="#1064A7"/>
<path d="M11.2002 17.3999C11.0002 21.9999 15.6002 23.7999 18.0002 19.9999C18.6002 18.9999 18.0002 18.5999 16.2002 19.1999C14.6002 19.7999 13.0002 18.7999 12.4002 16.5999C11.6002 13.7999 11.4002 13.7999 11.2002 17.3999Z" fill="#1064A7"/>
<path d="M101 17.2001C101 19.2001 100 20.0001 97.8 19.2001C96.2 18.6001 95.4 18.8001 96 20.0001C98.2 23.6001 103 22.2001 103 18.0001C103 15.8001 102.6 14.0001 102 14.0001C101.4 14.0001 101 15.4001 101 17.2001Z" fill="#1064A7"/>
<path d="M6.39981 23.4C4.79981 26 6.59981 32 8.99981 32C9.79981 32 11.5998 30.6 12.9998 29C15.1998 26.4 14.9998 26.2 12.3998 27.2C10.3998 27.8 8.99981 27 8.59981 24.6C8.19981 22.2 7.39981 21.8 6.39981 23.4Z" fill="#1064A7"/>
<path d="M105 24.8C105 27.4 104 28 101.8 27.2C99.0001 26.2 98.8001 26.4 101 29C102.4 30.6 104.2 32 105 32C107.6 32 109.2 25.4 107 23.2C105.6 21.8 105 22.4 105 24.8Z" fill="#1064A7"/>
<path d="M3.40015 35C4.20015 40 10.0001 41.4 11.8001 36.8C12.8001 34 12.6001 33.8 10.2001 35.8C8.00015 37.8 6.80015 37.4 5.00015 34.6C3.00015 31.2 2.80015 31.2 3.40015 35Z" fill="#1064A7"/>
<path d="M108.2 35.2C107 37.6 106.2 38.2 105.6 36.4C105 35.2 103.6 34 102.4 34C101.2 34 101.6 35.6 103.6 37.4C106 40 107.6 40.2 109.2 38.6C110.4 37.4 111 35.2 110.6 33.8C110 32 109.2 32.6 108.2 35.2Z" fill="#1064A7"/>
<path d="M1 41.2C1 42.2 2.2 45 3.8 47C6.2 50.2 7 50.4 9.8 48.2C11.6 46.8 13 44.6 13 43.6C13 42.4 11.6 42.6 10 44C7.4 46.2 6.4 46 4 42.8C2.4 40.8 1 40 1 41.2Z" fill="#1064A7"/>
<path d="M109.4 43.1999C107.6 46.3999 107 46.3999 103.8 43.9999C100.6 41.1999 100.6 41.3999 102.8 45.3999C105.8 51.1999 108.2 51.1999 111 45.7999C113.8 40.7999 112.2 38.1999 109.4 43.1999Z" fill="#1064A7"/>
<path d="M10.1998 52.4C9.99984 56.6 7.79984 57 4.19984 53.4C2.19984 51.4 1.99984 51.6 2.99984 54.4C3.79984 56.2 5.59984 58.2 7.19984 58.8C10.3998 60 12.9998 55.6 11.3998 51.6C10.5998 50 10.1998 50.4 10.1998 52.4Z" fill="#1064A7"/>
<path d="M103.2 53.4C103.2 55.8 103.8 58.2 104.8 59C106.6 60 113 55 113 52.4C113 51.8 112 52.2 110.6 53.6C107.2 57 105.4 56.6 104.4 52.4C103.6 49.8 103.4 50 103.2 53.4Z" fill="#1064A7"/>
<path d="M13.9999 61.1999C13.9999 63.3999 12.7999 63.9999 9.59989 62.9999C5.1999 61.7999 5.1999 61.7999 8.79989 64.7999C14.3999 69.2 15.9999 68.8 15.9999 62.9999C15.9999 60.1999 15.5999 57.9999 14.9999 57.9999C14.3999 57.9999 13.9999 59.3999 13.9999 61.1999Z" fill="#1064A7"/>
<path d="M98.2 62.4C98 69 100 69.4 106.2 63.8C110.8 60 110.8 59.8 106.6 61.8C100.8 64.6 100.4 64.6 99.4 60.4C98.8 58.4 98.4 59.2 98.2 62.4Z" fill="#1064A7"/>
<path d="M19.8002 67.3999C20.0002 70.1999 18.8002 70.7999 15.0002 70.3999C11.0002 69.9999 10.6002 70.1999 13.0002 71.7999C18.6002 75.5999 23.0002 74.3999 23.0002 68.9999C23.0002 66.1999 22.2002 63.9999 21.2002 63.9999C20.2002 63.9999 19.6002 65.5999 19.8002 67.3999Z" fill="#1064A7"/>
<path d="M91 68.9999C91 74.3999 95.4 75.5999 101 71.7999C103.4 70.1999 103 69.9999 99 70.3999C95.2 70.7999 94 70.1999 94.2 67.3999C94.4 65.5999 93.8 63.9999 92.8 63.9999C91.8 63.9999 91 66.1999 91 68.9999Z" fill="#1064A7"/>
<path d="M24.5001 8.49994C18 7.5 -15.9999 64.4999 31.0001 75.5" stroke="#1064A7"/>
<path d="M90.0321 8.49994C96.5322 7.5 130.532 64.4999 83.5321 75.5" stroke="#1064A7"/>
<path d="M12 77.5H99V81H111L103 89L107 93L111 97H97L99 95H12L14 97H0L4 93L8 89L0 81H12V77.5Z" fill="#EA5703"/>
<path d="M22.5469 90H21.416V86.0566H17.1152V90H15.9902V81.4688H17.1152V85.1367H21.416V81.4688H22.5469V90ZM28.2891 90C28.2266 89.875 28.1758 89.6523 28.1367 89.332C27.6328 89.8555 27.0312 90.1172 26.332 90.1172C25.707 90.1172 25.1934 89.9414 24.791 89.5898C24.3926 89.2344 24.1934 88.7852 24.1934 88.2422C24.1934 87.582 24.4434 87.0703 24.9434 86.707C25.4473 86.3398 26.1543 86.1562 27.0645 86.1562H28.1191V85.6582C28.1191 85.2793 28.0059 84.9785 27.7793 84.7559C27.5527 84.5293 27.2188 84.416 26.7773 84.416C26.3906 84.416 26.0664 84.5137 25.8047 84.709C25.543 84.9043 25.4121 85.1406 25.4121 85.418H24.3223C24.3223 85.1016 24.4336 84.7969 24.6562 84.5039C24.8828 84.207 25.1875 83.9727 25.5703 83.8008C25.957 83.6289 26.3809 83.543 26.8418 83.543C27.5723 83.543 28.1445 83.7266 28.5586 84.0938C28.9727 84.457 29.1875 84.959 29.2031 85.5996V88.5176C29.2031 89.0996 29.2773 89.5625 29.4258 89.9062V90H28.2891ZM26.4902 89.1738C26.8301 89.1738 27.1523 89.0859 27.457 88.9102C27.7617 88.7344 27.9824 88.5059 28.1191 88.2246V86.9238H27.2695C25.9414 86.9238 25.2773 87.3125 25.2773 88.0898C25.2773 88.4297 25.3906 88.6953 25.6172 88.8867C25.8438 89.0781 26.1348 89.1738 26.4902 89.1738ZM36.2578 86.9004C36.2578 87.8652 36.0371 88.6426 35.5957 89.2324C35.1543 89.8223 34.5566 90.1172 33.8027 90.1172C33.0332 90.1172 32.4277 89.873 31.9863 89.3848V92.4375H30.9023V83.6602H31.8926L31.9453 84.3633C32.3867 83.8164 33 83.543 33.7852 83.543C34.5469 83.543 35.1484 83.8301 35.5898 84.4043C36.0352 84.9785 36.2578 85.7773 36.2578 86.8008V86.9004ZM35.1738 86.7773C35.1738 86.0625 35.0215 85.498 34.7168 85.084C34.4121 84.6699 33.9941 84.4629 33.4629 84.4629C32.8066 84.4629 32.3145 84.7539 31.9863 85.3359V88.3652C32.3105 88.9434 32.8066 89.2324 33.4746 89.2324C33.9941 89.2324 34.4062 89.0273 34.7109 88.6172C35.0195 88.2031 35.1738 87.5898 35.1738 86.7773ZM42.9961 86.9004C42.9961 87.8652 42.7754 88.6426 42.334 89.2324C41.8926 89.8223 41.2949 90.1172 40.541 90.1172C39.7715 90.1172 39.166 89.873 38.7246 89.3848V92.4375H37.6406V83.6602H38.6309L38.6836 84.3633C39.125 83.8164 39.7383 83.543 40.5234 83.543C41.2852 83.543 41.8867 83.8301 42.3281 84.4043C42.7734 84.9785 42.9961 85.7773 42.9961 86.8008V86.9004ZM41.9121 86.7773C41.9121 86.0625 41.7598 85.498 41.4551 85.084C41.1504 84.6699 40.7324 84.4629 40.2012 84.4629C39.5449 84.4629 39.0527 84.7539 38.7246 85.3359V88.3652C39.0488 88.9434 39.5449 89.2324 40.2129 89.2324C40.7324 89.2324 41.1445 89.0273 41.4492 88.6172C41.7578 88.2031 41.9121 87.5898 41.9121 86.7773ZM46.3828 88.4121L47.8594 83.6602H49.0195L46.4707 90.9785C46.0762 92.0332 45.4492 92.5605 44.5898 92.5605L44.3848 92.543L43.9805 92.4668V91.5879L44.2734 91.6113C44.6406 91.6113 44.9258 91.5371 45.1289 91.3887C45.3359 91.2402 45.5059 90.9688 45.6387 90.5742L45.8789 89.9297L43.6172 83.6602H44.8008L46.3828 88.4121ZM59.6953 90H58.5645V86.0566H54.2637V90H53.1387V81.4688H54.2637V85.1367H58.5645V81.4688H59.6953V90ZM65.4375 90C65.375 89.875 65.3242 89.6523 65.2852 89.332C64.7812 89.8555 64.1797 90.1172 63.4805 90.1172C62.8555 90.1172 62.3418 89.9414 61.9395 89.5898C61.541 89.2344 61.3418 88.7852 61.3418 88.2422C61.3418 87.582 61.5918 87.0703 62.0918 86.707C62.5957 86.3398 63.3027 86.1562 64.2129 86.1562H65.2676V85.6582C65.2676 85.2793 65.1543 84.9785 64.9277 84.7559C64.7012 84.5293 64.3672 84.416 63.9258 84.416C63.5391 84.416 63.2148 84.5137 62.9531 84.709C62.6914 84.9043 62.5605 85.1406 62.5605 85.418H61.4707C61.4707 85.1016 61.582 84.7969 61.8047 84.5039C62.0312 84.207 62.3359 83.9727 62.7188 83.8008C63.1055 83.6289 63.5293 83.543 63.9902 83.543C64.7207 83.543 65.293 83.7266 65.707 84.0938C66.1211 84.457 66.3359 84.959 66.3516 85.5996V88.5176C66.3516 89.0996 66.4258 89.5625 66.5742 89.9062V90H65.4375ZM63.6387 89.1738C63.9785 89.1738 64.3008 89.0859 64.6055 88.9102C64.9102 88.7344 65.1309 88.5059 65.2676 88.2246V86.9238H64.418C63.0898 86.9238 62.4258 87.3125 62.4258 88.0898C62.4258 88.4297 62.5391 88.6953 62.7656 88.8867C62.9922 89.0781 63.2832 89.1738 63.6387 89.1738ZM71.1152 84.6328C70.9512 84.6055 70.7734 84.5918 70.582 84.5918C69.8711 84.5918 69.3887 84.8945 69.1348 85.5V90H68.0508V83.6602H69.1055L69.123 84.3926C69.4785 83.8262 69.9824 83.543 70.6348 83.543C70.8457 83.543 71.0059 83.5703 71.1152 83.625V84.6328ZM74.3145 88.5293L75.8848 83.6602H76.9922L74.7188 90H73.8926L71.5957 83.6602H72.7031L74.3145 88.5293ZM80.584 90.1172C79.7246 90.1172 79.0254 89.8359 78.4863 89.2734C77.9473 88.707 77.6777 87.9512 77.6777 87.0059V86.8066C77.6777 86.1777 77.7969 85.6172 78.0352 85.125C78.2773 84.6289 78.6133 84.2422 79.043 83.9648C79.4766 83.6836 79.9453 83.543 80.4492 83.543C81.2734 83.543 81.9141 83.8145 82.3711 84.3574C82.8281 84.9004 83.0566 85.6777 83.0566 86.6895V87.1406H78.7617C78.7773 87.7656 78.959 88.2715 79.3066 88.6582C79.6582 89.041 80.1035 89.2324 80.6426 89.2324C81.0254 89.2324 81.3496 89.1543 81.6152 88.998C81.8809 88.8418 82.1133 88.6348 82.3125 88.377L82.9746 88.8926C82.4434 89.709 81.6465 90.1172 80.584 90.1172ZM80.4492 84.4336C80.0117 84.4336 79.6445 84.5938 79.3477 84.9141C79.0508 85.2305 78.8672 85.6758 78.7969 86.25H81.9727V86.168C81.9414 85.6172 81.793 85.1914 81.5273 84.8906C81.2617 84.5859 80.9023 84.4336 80.4492 84.4336ZM88.0078 88.3184C88.0078 88.0254 87.8965 87.7988 87.6738 87.6387C87.4551 87.4746 87.0703 87.334 86.5195 87.2168C85.9727 87.0996 85.5371 86.959 85.2129 86.7949C84.8926 86.6309 84.6543 86.4355 84.498 86.209C84.3457 85.9824 84.2695 85.7129 84.2695 85.4004C84.2695 84.8809 84.4883 84.4414 84.9258 84.082C85.3672 83.7227 85.9297 83.543 86.6133 83.543C87.332 83.543 87.9141 83.7285 88.3594 84.0996C88.8086 84.4707 89.0332 84.9453 89.0332 85.5234H87.9434C87.9434 85.2266 87.8164 84.9707 87.5625 84.7559C87.3125 84.541 86.9961 84.4336 86.6133 84.4336C86.2188 84.4336 85.9102 84.5195 85.6875 84.6914C85.4648 84.8633 85.3535 85.0879 85.3535 85.3652C85.3535 85.627 85.457 85.8242 85.6641 85.957C85.8711 86.0898 86.2441 86.2168 86.7832 86.3379C87.3262 86.459 87.7656 86.6035 88.1016 86.7715C88.4375 86.9395 88.6855 87.1426 88.8457 87.3809C89.0098 87.6152 89.0918 87.9023 89.0918 88.2422C89.0918 88.8086 88.8652 89.2637 88.4121 89.6074C87.959 89.9473 87.3711 90.1172 86.6484 90.1172C86.1406 90.1172 85.6914 90.0273 85.3008 89.8477C84.9102 89.668 84.6035 89.418 84.3809 89.0977C84.1621 88.7734 84.0527 88.4238 84.0527 88.0488H85.1367C85.1562 88.4121 85.3008 88.7012 85.5703 88.916C85.8438 89.127 86.2031 89.2324 86.6484 89.2324C87.0586 89.2324 87.3867 89.1504 87.6328 88.9863C87.8828 88.8184 88.0078 88.5957 88.0078 88.3184ZM91.9746 82.125V83.6602H93.1582V84.498H91.9746V88.4297C91.9746 88.6836 92.0273 88.875 92.1328 89.0039C92.2383 89.1289 92.418 89.1914 92.6719 89.1914C92.7969 89.1914 92.9688 89.168 93.1875 89.1211V90C92.9023 90.0781 92.625 90.1172 92.3555 90.1172C91.8711 90.1172 91.5059 89.9707 91.2598 89.6777C91.0137 89.3848 90.8906 88.9688 90.8906 88.4297V84.498H89.7363V83.6602H90.8906V82.125H91.9746Z" fill="white"/>
</svg>
