<svg width="140" height="140" viewBox="0 0 140 140" fill="none" xmlns="http://www.w3.org/2000/svg">
<circle cx="34.5" cy="17.5" r="15"   stroke-width="5"/>
<path d="M20 37.5H50C59.665 37.5 67.5 45.335 67.5 55V67.5H2.5V55C2.5 45.335 10.335 37.5 20 37.5Z"   stroke-width="5"/>
<circle cx="104.5" cy="87.5" r="15" stroke-width="5"/>
<path d="M90 107.5H120C129.665 107.5 137.5 115.335 137.5 125V137.5H72.5V125C72.5 115.335 80.335 107.5 90 107.5Z" stroke-width="5"/>
<path d="M71.0607 106.061C71.6464 105.475 71.6464 104.525 71.0607 103.939L61.5147 94.3934C60.9289 93.8076 59.9792 93.8076 59.3934 94.3934C58.8076 94.9792 58.8076 95.9289 59.3934 96.5147L67.8787 105L59.3934 113.485C58.8076 114.071 58.8076 115.021 59.3934 115.607C59.9792 116.192 60.9289 116.192 61.5147 115.607L71.0607 106.061ZM35 106.5L70 106.5L70 103.5L35 103.5L35 106.5Z" stroke-width="1"/>
<line x1="33.5" y1="106.5" x2="33.5" y2="73" stroke-width="5"/>
<path d="M68.9393 33.9393C68.3536 34.5251 68.3536 35.4749 68.9393 36.0607L78.4853 45.6066C79.0711 46.1924 80.0208 46.1924 80.6066 45.6066C81.1924 45.0208 81.1924 44.0711 80.6066 43.4853L72.1213 35L80.6066 26.5147C81.1924 25.9289 81.1924 24.9792 80.6066 24.3934C80.0208 23.8076 79.0711 23.8076 78.4853 24.3934L68.9393 33.9393ZM105 33.5L70 33.5L70 36.5L105 36.5L105 33.5Z" stroke-width="1"/>
<line x1="106.5" y1="33.5" x2="106.5" y2="67" stroke-width="5"/>
</svg>
