<svg width="141" height="143" viewBox="0 0 141 143" fill="none" xmlns="http://www.w3.org/2000/svg">
<path d="M1 66.5V57C3.8 51.4 9.83333 47 12.5 45.5C12.5 45.5 18 44.5178 20.5 45.5C31.6999 49.9002 34.5 56.6667 34.5 59.5C34.6667 60.5 34.9 63.7 34.5 68.5C34.1 73.3 30 77.8333 28 79.5C28 79.5 22 79.7593 21 79.5C10.2 76.7 3.16667 69.6667 1 66.5Z" fill="#800000" stroke="black"/>
<path d="M39 1.00002H49C59.3999 7.00002 63.3333 18.1667 64 23C64.3334 23.1667 65 26.5 64 31C62.687 36.909 54.3334 42.1667 50 44C49 44 47 44.2727 46 44C32.979 40.4489 26.6722 29.1456 25.0637 23.7204C25.067 24.1371 25.0526 24.1845 25 23.5C25.0203 23.5724 25.0416 23.6458 25.0637 23.7204C25.0564 22.8181 24.9658 20.1841 25 19.5C25.4995 9.49999 34.1666 3.66669 39 1.00002Z" fill="#800000"/>
<path d="M94 43H87C76.6 39.0001 74.625 32.5 74 30C73.5 28 73.7714 25 74 24C78 6.49998 84.1532 3.93873 89 2.00002C93.5 0.20002 97.5 1.25004 99 1.50001C108.6 3.09976 112.333 10.3334 113 13.5C114 15 113.156 20.5 113 21C107 40.2 96.5 42.5 94 43Z" fill="#800000"/>
<path d="M140 51V57C134.4 68.2 127.667 72.3333 125 73C123 73.5 119 73.7778 117 73C109.8 70.2 106 62.5 105 59C104.571 57.5 104.625 55.5 105 54C107 46 117.167 42.6667 122 42C124.5 41.6552 128 41.3333 130 42C136 44 139.167 48.8333 140 51Z" fill="#800000"/>
<path d="M66 50H71.5C97.5 59.2 113.667 92.5 118.5 108C119.167 110 120.1 115 118.5 119C111.7 134.2 84.3333 140.667 71.5 142C64.3333 142.333 49.3 142.8 46.5 142C35.7 138.8 33 126.667 33 121V114.5C38.6 68.9 57.3333 52.5 66 50Z" fill="#800000"/>
<path d="M49 1.00002H39C34.1666 3.66669 25.4995 9.49999 25 19.5C24.95 20.5 25.1667 25.6667 25 23.5C26.5 28.8334 32.8 40.4001 46 44C47 44.2727 49 44 50 44C54.3334 42.1667 62.687 36.909 64 31C65 26.5 64.3334 23.1667 64 23C63.3333 18.1667 59.3999 7.00002 49 1.00002ZM87 43H94C96.5 42.5 107 40.2 113 21C113.156 20.5 114 15 113 13.5C112.333 10.3334 108.6 3.09976 99 1.50001C97.5 1.25004 93.5 0.20002 89 2.00002C84.1532 3.93873 78 6.49998 74 24C73.7714 25 73.5 28 74 30C74.625 32.5 76.6 39.0001 87 43ZM140 57V51C139.167 48.8333 136 44 130 42C128 41.3333 124.5 41.6552 122 42C117.167 42.6667 107 46 105 54C104.625 55.5 104.571 57.5 105 59C106 62.5 109.8 70.2 117 73C119 73.7778 123 73.5 125 73C127.667 72.3333 134.4 68.2 140 57ZM71.5 50H66C57.3333 52.5 38.6 68.9 33 114.5C33 118.5 33 120.5 33 121C33 126.667 35.7 138.8 46.5 142C49.3 142.8 64.3333 142.333 71.5 142C84.3333 140.667 111.7 134.2 118.5 119C120.1 115 119.167 110 118.5 108C113.667 92.5 97.5 59.2 71.5 50Z" stroke="black"/>
<path d="M84.5 79H50L58 90V118L50 129H78.5L70 118V112H86.5C95.7 109.2 97.3333 102.833 97 100C97.1667 98.8333 97.4 95.7 97 92.5C95.4 82.5 88 79.3333 84.5 79Z" fill="white" stroke="black"/>
<path d="M81 88H70V103H81C82.3333 103.167 85 102 85 96C85 90 82.3333 88.1667 81 88Z" fill="#800000" stroke="black"/>
</svg>
