<?xml version="1.0" encoding="utf-8"?>
<svg version="1.1" id="Artwork" xmlns="http://www.w3.org/2000/svg" xmlns:xlink="http://www.w3.org/1999/xlink" viewBox="0 0 1075.3 1074.8" >
<path d="M108.4,866.5l124-111.1l17,19l-106.1,95l58.9,65.7l-17.9,16L108.4,866.5z"/>
<path d="M295.1,1026.6c10.7-15.7,22.2-31.7,34.8-48c12.5-16.3,25.3-32.3,38.4-47.8c13.1-15.5,25.7-29.8,38-42.9 l28.5,9.3c2.2,17.8,3.9,36.9,5.3,57.1c1.4,20.3,2.2,40.7,2.6,61.2c0.4,20.6,0.2,40.3-0.5,59.3l-25.9-8.5c0.4-7.2,0.8-14.6,1-22.3 c0.2-7.7,0.4-15.5,0.5-23.5L346.1,997c-4.6,6.5-9.1,12.9-13.5,19.2c-4.4,6.3-8.5,12.5-12.4,18.6L295.1,1026.6z M360.8,977.3 l56.8,18.6c-0.3-14.4-0.8-28.7-1.5-42.9c-0.7-14.1-1.7-27.5-2.8-40c-8.3,9.5-16.9,19.7-25.9,30.6 C378.4,954.6,369.6,965.8,360.8,977.3z"/>
<path d="M622.1,1074.5l-45.4-160.2l68.2-19.3c17.6-5,32-5.1,43.2-0.2c11.2,4.8,18.6,13.6,22.2,26.5 c2.2,7.9,2.3,15.4,0.3,22.5c-2,7.2-7.3,13.6-15.9,19.2c12.8-0.6,22.9,1.9,30.3,7.4c7.4,5.5,12.6,13.2,15.4,23.2 c3.9,13.8,2.1,25.9-5.3,36.4c-7.5,10.5-20.2,18.3-38.3,23.4L622.1,1074.5z M649.8,917.6l-42.8,12.1l13.3,46.9l43.8-12.4 c10.2-2.9,17.2-7,21-12.2c3.8-5.2,4.5-11.8,2.2-19.8c-2.3-8-6.5-13.2-12.6-15.5C668.7,914.3,660.4,914.6,649.8,917.6z M676.3,984.5l-49.8,14.1l13.3,46.9l50.3-14.3c21.2-6,29.6-16.8,25.2-32.5c-2.2-7.9-6.3-13.1-12.2-15.7 C697.4,980.6,688.4,981.1,676.3,984.5z"/>
<path d="M936.2,904.2c-10.5,11.5-21.8,19.6-33.6,24.3c-11.9,4.7-24.3,6.3-37.3,4.9l0.1-24.7c11.1,1,21-0.2,29.9-3.6 c8.8-3.4,16.7-8.9,23.7-16.6l2-2.2c8.4-9.2,13.2-17.6,14.3-25.1c1.1-7.6-1.1-13.9-6.7-19.1c-4.3-4-8.8-5.8-13.5-5.5 c-4.7,0.3-9.2,1.6-13.7,4c-4.4,2.4-8.4,4.9-12,7.4l-22.4,16.1c-3.8,2.8-8.2,5.5-13.1,8.2c-5,2.7-10.3,4.7-16,6.1 c-5.7,1.3-11.5,1.4-17.5,0.1c-6-1.3-11.9-4.6-17.8-10c-7.3-6.7-11.9-14.5-13.9-23.3c-2-8.8-1.3-18.1,2.1-27.9 c3.3-9.7,9.3-19.3,17.8-28.6l2-2.2c18-19.6,39.4-27.8,64.3-24.5l-1.2,23.5c-10.7-1-19.7,0.1-27,3.2c-7.3,3.1-13.7,7.8-19.3,13.9 l-2,2.2c-7.3,8-11.7,16-13,23.8c-1.4,7.9,0.7,14.3,6.2,19.4c3.6,3.3,7.3,4.9,11.2,4.9c3.9,0,7.9-1.1,12.1-3.2 c4.1-2.2,8.4-4.8,12.7-7.8l22.4-16.1c3.1-2.2,7.1-4.8,12-7.6c4.9-2.9,10.4-5.2,16.5-6.8c6.1-1.7,12.5-1.9,19.2-0.6 c6.7,1.2,13.4,4.9,20.1,11c7.6,7,12.4,14.9,14.3,23.7c1.9,8.8,1.1,18.1-2.4,27.8c-3.5,9.7-9.6,19.3-18.3,28.8L936.2,904.2z"/>
<path d="M542.7,249.3h-12.1L283,678.1l6,10.5h495.2l6-10.5L542.7,249.3z M588.7,424.5l-45.1-26v-52.1l45.1,26V424.5z M647.7,526.7l-45.1-26v-52.1l45.1,26V526.7z M543.6,482.7l45.1,26v52.1l-45.1-26V482.7z M529.6,534.8l-45.1,26v-52.1l45.1-26 V534.8z M536.6,546.8l45.1,26l-45.1,26l-45.1-26L536.6,546.8z M602.6,516.8l45.1,26v52.1l-45.1-26V516.8z M588.7,492.6l-45.1-26 v-52.1l45.1,26V492.6z M529.6,398.5l-45.1,26v-52.1l45.1-26V398.5z M529.6,414.5v52.1l-45.1,26v-52.1L529.6,414.5z M470.6,500.7 l-45.1,26v-52.1l45.1-26V500.7z M470.6,516.8v52.1l-45.1,26v-52.1L470.6,516.8z M411.6,602.9l-45.1,26v-52.1l45.1-26V602.9z M418.6,615l45.1,26l-45.1,26l-45.1-26L418.6,615z M432.5,607l45.1-26l45.1,26l-45.1,26L432.5,607z M536.6,615l45.1,26l-45.1,26 l-45.1-26L536.6,615z M550.6,607l45.1-26l45.1,26l-45.1,26L550.6,607z M654.7,615l45.1,26l-45.1,26l-45.1-26L654.7,615z M706.7,629 l-45.1-26v-52.1l45.1,26V629z M661.6,534.8v-51.5l44.6,77.3L661.6,534.8z M602.6,432.5V381l44.6,77.3L602.6,432.5z M543.6,330.3 v-51.5l44.6,77.3L543.6,330.3z M529.6,330.3L485,356.1l44.6-77.3V330.3z M470.6,432.5L426,458.3l44.6-77.3V432.5z M411.6,534.8 L367,560.5l44.6-77.3V534.8z M352.6,637l-44.6,25.8l44.6-77.3V637z M359.5,649.1l44.2,25.5h-88.5L359.5,649.1z M477.6,649.1 l44.2,25.5h-88.5L477.6,649.1z M595.6,649.1l44.2,25.5h-88.5L595.6,649.1z M713.7,649.1l44.2,25.5h-88.5L713.7,649.1z M720.7,637 v-51.5l44.6,77.3L720.7,637z"/>
<path d="M196.3,377L58.7,283.4l67.9-99.8l19.5,13.2L92.2,276l39.5,26.9l44.2-65l19.5,13.2l-44.2,65l39.7,27l55-80.8 l19.5,13.2L196.3,377z"/>
<path d="M324.7,225.9c-2.1-18.9-3.7-38.6-4.7-59.1c-1.1-20.6-1.7-41-1.8-61.3c-0.1-20.3,0.2-39.4,1.1-57.3L347,36.8 c13.2,12.1,26.9,25.5,41.1,40c14.2,14.5,28.1,29.5,41.8,44.9c13.6,15.4,26.3,30.5,38.1,45.4l-25.2,10.3 c-4.3-5.8-8.9-11.6-13.7-17.6c-4.8-6-9.8-12.1-14.9-18.2l-69.9,28.7c0.7,7.9,1.4,15.7,2.2,23.4c0.8,7.7,1.7,15,2.6,22.2 L324.7,225.9z M342.7,145.7l55.3-22.7c-9.6-10.8-19.2-21.3-29-31.6C359.4,81.1,350,71.6,341,62.8c-0.2,12.6-0.1,25.9,0.2,40.1 C341.4,117,342,131.3,342.7,145.7z"/>
<path d="M557.7,163.4L589.9,0l25,4.9l-27.5,139.8l86.6,17l-4.6,23.6L557.7,163.4z"/>
<path d="M746.9,231.2l98.7-134.1l20.3,14.9l-98.7,134.1L746.9,231.2z"/>
<path d="M859.1,352.2l125.6-67.2l-26.3-49.1l21.2-11.3l64.4,120.4l-21.2,11.3l-26.3-49.1L871,374.4L859.1,352.2z"/>
<path d="M908.8,533.3h62.3c16.5-11.1,33.7-22,51.5-32.6c17.8-10.6,35.4-20.2,52.7-28.7v28.8 c-13,5.9-26.6,12.9-40.9,20.9c-14.3,8-28,16.2-41.1,24.7c13.2,8.5,26.9,16.7,41.1,24.7c14.3,8,27.9,14.9,40.9,20.7v27.9 c-17.3-8.5-34.8-18-52.7-28.7c-17.8-10.6-35-21.5-51.5-32.6h-62.3V533.3z"/>
<path d="M166.5,604.7H0v-71.2c0-20.9,4.7-36.5,14.1-46.9c9.4-10.4,22.1-15.6,38-15.6c12.1,0,22.3,3,30.7,8.9 s14.4,14.9,18,26.9c10.2-7.2,20.9-14.3,31.9-21.2c11-6.9,22.3-13.5,33.9-19.9v29.1c-11.3,5.8-22.2,11.9-32.9,18.3 c-10.7,6.4-20.5,12.6-29.4,18.7c0,0.5,0,1,0,1.5v46.3h62.3V604.7z M23.2,535.8v43.9h58.3v-43.9c0-13.5-2.4-23.4-7.2-29.7 c-4.8-6.3-12.1-9.5-21.9-9.5c-9.8,0-17.1,3.2-21.9,9.5C25.6,512.4,23.2,522.3,23.2,535.8z"/>
</svg>