<svg width="155" height="155" viewBox="0 0 155 155" fill="none" xmlns="http://www.w3.org/2000/svg">
<path d="M71.5142 27.8008C67.9681 24.3069 74.8099 17.9447 84.6498 16.5474C94.4898 15.1502 104.583 15.8816 110.875 22.2101C117.168 28.5385 116.505 41.1074 110.876 48.8102C105.247 56.5131 92.4709 61.8555 92.4709 61.8555C92.4709 61.8555 78.8259 35.0048 71.5142 27.8008Z" fill="#7D71F2"/>
<path d="M92.7223 62.824C92.7223 62.824 100.49 60.5839 108.331 65.5203C116.173 70.4566 127.053 80.2263 124.089 82.5697C121.125 84.913 115.133 90.7349 107.291 85.7985C99.4498 80.8622 92.7223 62.824 92.7223 62.824Z" fill="#0148E8"/>
<path d="M67.637 79.6383C65.3861 80.7851 63.2129 81.7274 61.1776 82.4388C60.0819 82.8218 59.0047 83.1453 57.9758 83.4004C56.8994 83.6673 55.846 83.8666 54.845 83.9929C53.8009 84.1246 52.7846 84.1805 51.8244 84.159C50.8256 84.1367 49.8596 84.03 48.9533 83.842C48.0125 83.6467 47.1096 83.3584 46.2697 82.9849C45.3995 82.5979 44.5723 82.1086 43.8113 81.5306C42.8696 80.8154 41.9636 80.0406 41.1183 79.2278C40.2952 78.4363 39.5077 77.5877 38.7779 76.7055C38.0676 75.847 37.3931 74.934 36.773 73.9919C36.1699 73.0756 35.6026 72.1077 35.0867 71.1152C33.1542 67.3973 31.843 63.168 31.1893 58.5448C30.8915 56.438 30.7313 54.2424 30.7131 52.0189C30.696 49.9171 30.8054 47.7696 31.0384 45.6363C31.2598 43.6091 31.5933 41.5865 32.0297 39.6247C32.4483 37.7426 32.9602 35.9216 33.5512 34.2123C34.1352 32.523 34.8034 30.9188 35.5372 29.4441C36.2976 27.916 37.1383 26.5077 38.0358 25.2583C39.9545 22.5875 42.1422 20.6143 44.5383 19.3934C45.1772 19.0679 45.8388 18.7928 46.5048 18.576C47.1859 18.3541 47.8898 18.1872 48.597 18.0798C49.3203 17.9699 50.0665 17.9194 50.8148 17.9296C51.5803 17.94 52.3686 18.0143 53.158 18.1503C53.9654 18.2895 54.7959 18.4971 55.6262 18.7673C56.4754 19.0437 57.3477 19.3932 58.2189 19.806C59.1096 20.228 60.0235 20.7279 60.9352 21.2917C61.8669 21.8678 62.8221 22.5266 63.7741 23.2496C64.7085 23.9593 65.6637 24.7537 66.6133 25.6107C67.5217 26.4306 68.4491 27.3295 69.3697 28.2827C71.0828 30.0562 72.8352 32.0821 74.5784 34.3039C77.5149 38.0466 80.4795 42.4073 83.39 47.2648C84.5335 49.1733 85.6713 51.1641 86.7717 53.1817C87.6521 54.7959 88.5107 56.4308 89.3237 58.0411C90.597 60.5633 91.3606 62.2394 91.4808 62.5051C91.3336 62.6435 90.6421 63.2897 89.5341 64.2651C88.3811 65.28 86.5287 66.8688 84.2509 68.6748C81.6909 70.7044 79.1265 72.589 76.6289 74.276C73.5074 76.3845 70.482 78.1886 67.637 79.6383Z" fill="#F12E65"/>
<path d="M92.1281 63.2963C92.1281 63.2963 95.3699 81.3499 87.5691 101.028C79.7683 120.706 72.0624 145.544 62.122 142.572C52.1817 139.599 42.807 120.358 50.6076 100.68C53.3769 93.6948 56.4456 88.1988 68.3163 81.2666C80.187 74.3345 92.1281 63.2963 92.1281 63.2963Z" fill="#FFCF2E"/>
</svg>
